M48
INCH,TZ
T1C0.030
T2C0.031
T3C0.032
T4C0.039
T5C0.040
%
G90
G05
T1
X60750Y-44776
X60750Y-54224
X61750Y-44776
X61750Y-54224
X62750Y-44776
X62750Y-54224
X63750Y-44776
X63750Y-54224
X64750Y-44776
X64750Y-54224
X65750Y-44776
X65750Y-54224
X66750Y-44776
X66750Y-54224
X67750Y-44776
X67750Y-54224
T2
X57750Y-47000
X57750Y-48250
X57750Y-51250
X58250Y-46500
X58500Y-52250
X58750Y-46000
X58750Y-48250
X58750Y-51250
X59750Y-48250
X59750Y-51250
X60750Y-48250
X60750Y-51250
X61750Y-48250
X61750Y-51250
X62750Y-48250
X62750Y-51250
X63750Y-48250
X63750Y-49250
X63750Y-51250
X64750Y-48250
X64750Y-51250
X65750Y-48250
X65750Y-51250
X66000Y-47000
X66250Y-45500
X66500Y-46500
X66750Y-48250
X66750Y-51250
X67000Y-46000
X67750Y-48250
X67750Y-51250
X68750Y-48250
X68750Y-51250
X69750Y-48250
X69750Y-51250
X70250Y-45500
X70750Y-48250
X70750Y-51250
X71250Y-52250
X71500Y-49250
T3
X57250Y-40750
X57250Y-42750
X60250Y-40750
X60250Y-42750
X61000Y-40750
X61000Y-42750
X64000Y-40750
X64000Y-42750
X64750Y-40750
X64750Y-42750
X67750Y-40750
X67750Y-42750
X68500Y-40750
X68500Y-42750
X71500Y-40750
X71500Y-42750
T4
X64750Y-53250
X69750Y-53250
T5
X57500Y-53000
X57500Y-54000
X57500Y-55000
X71250Y-45750
X71250Y-46750
X71250Y-53250
X71250Y-54250
T0
M30
