G04 #@! TF.FileFunction,Copper,L2,Bot,Signal*
%FSLAX46Y46*%
G04 Gerber Fmt 4.6, Leading zero omitted, Abs format (unit mm)*
G04 Created by KiCad (PCBNEW 4.0.2-stable) date 2016-09-07 01:54:00*
%MOMM*%
G01*
G04 APERTURE LIST*
%ADD10C,0.100000*%
%ADD11C,0.300000*%
%ADD12C,1.524000*%
%ADD13O,1.600000X2.300000*%
%ADD14R,2.032000X2.032000*%
%ADD15O,2.032000X2.032000*%
%ADD16C,1.998980*%
%ADD17R,2.032000X1.727200*%
%ADD18O,2.032000X1.727200*%
%ADD19C,1.397000*%
%ADD20R,5.000000X2.000000*%
%ADD21C,1.400000*%
%ADD22C,0.700000*%
%ADD23C,0.600000*%
%ADD24C,0.800000*%
%ADD25C,0.254000*%
G04 APERTURE END LIST*
D10*
D11*
X177958857Y-140100857D02*
X177744571Y-140172286D01*
X177673143Y-140243714D01*
X177601714Y-140386571D01*
X177601714Y-140600857D01*
X177673143Y-140743714D01*
X177744571Y-140815143D01*
X177887429Y-140886571D01*
X178458857Y-140886571D01*
X178458857Y-139386571D01*
X177958857Y-139386571D01*
X177816000Y-139458000D01*
X177744571Y-139529429D01*
X177673143Y-139672286D01*
X177673143Y-139815143D01*
X177744571Y-139958000D01*
X177816000Y-140029429D01*
X177958857Y-140100857D01*
X178458857Y-140100857D01*
X176958857Y-140886571D02*
X176958857Y-139886571D01*
X176958857Y-140172286D02*
X176887429Y-140029429D01*
X176816000Y-139958000D01*
X176673143Y-139886571D01*
X176530286Y-139886571D01*
X175816000Y-140886571D02*
X175958858Y-140815143D01*
X176030286Y-140743714D01*
X176101715Y-140600857D01*
X176101715Y-140172286D01*
X176030286Y-140029429D01*
X175958858Y-139958000D01*
X175816000Y-139886571D01*
X175601715Y-139886571D01*
X175458858Y-139958000D01*
X175387429Y-140029429D01*
X175316000Y-140172286D01*
X175316000Y-140600857D01*
X175387429Y-140743714D01*
X175458858Y-140815143D01*
X175601715Y-140886571D01*
X175816000Y-140886571D01*
X174030286Y-140815143D02*
X174173143Y-140886571D01*
X174458857Y-140886571D01*
X174601715Y-140815143D01*
X174673143Y-140743714D01*
X174744572Y-140600857D01*
X174744572Y-140172286D01*
X174673143Y-140029429D01*
X174601715Y-139958000D01*
X174458857Y-139886571D01*
X174173143Y-139886571D01*
X174030286Y-139958000D01*
X173387429Y-140886571D02*
X173387429Y-139386571D01*
X172744572Y-140886571D02*
X172744572Y-140100857D01*
X172816001Y-139958000D01*
X172958858Y-139886571D01*
X173173143Y-139886571D01*
X173316001Y-139958000D01*
X173387429Y-140029429D01*
X171458858Y-140815143D02*
X171601715Y-140886571D01*
X171887429Y-140886571D01*
X172030286Y-140815143D01*
X172101715Y-140672286D01*
X172101715Y-140100857D01*
X172030286Y-139958000D01*
X171887429Y-139886571D01*
X171601715Y-139886571D01*
X171458858Y-139958000D01*
X171387429Y-140100857D01*
X171387429Y-140243714D01*
X172101715Y-140386571D01*
X169601715Y-140886571D02*
X169601715Y-139386571D01*
X169601715Y-140100857D02*
X168744572Y-140100857D01*
X168744572Y-140886571D02*
X168744572Y-139386571D01*
X167387429Y-140886571D02*
X167387429Y-140100857D01*
X167458858Y-139958000D01*
X167601715Y-139886571D01*
X167887429Y-139886571D01*
X168030286Y-139958000D01*
X167387429Y-140815143D02*
X167530286Y-140886571D01*
X167887429Y-140886571D01*
X168030286Y-140815143D01*
X168101715Y-140672286D01*
X168101715Y-140529429D01*
X168030286Y-140386571D01*
X167887429Y-140315143D01*
X167530286Y-140315143D01*
X167387429Y-140243714D01*
X166030286Y-140815143D02*
X166173143Y-140886571D01*
X166458857Y-140886571D01*
X166601715Y-140815143D01*
X166673143Y-140743714D01*
X166744572Y-140600857D01*
X166744572Y-140172286D01*
X166673143Y-140029429D01*
X166601715Y-139958000D01*
X166458857Y-139886571D01*
X166173143Y-139886571D01*
X166030286Y-139958000D01*
X165387429Y-140886571D02*
X165387429Y-139386571D01*
X165244572Y-140315143D02*
X164816001Y-140886571D01*
X164816001Y-139886571D02*
X165387429Y-140458000D01*
X163601715Y-140815143D02*
X163744572Y-140886571D01*
X164030286Y-140886571D01*
X164173143Y-140815143D01*
X164244572Y-140672286D01*
X164244572Y-140100857D01*
X164173143Y-139958000D01*
X164030286Y-139886571D01*
X163744572Y-139886571D01*
X163601715Y-139958000D01*
X163530286Y-140100857D01*
X163530286Y-140243714D01*
X164244572Y-140386571D01*
X162887429Y-140886571D02*
X162887429Y-139886571D01*
X162887429Y-140172286D02*
X162816001Y-140029429D01*
X162744572Y-139958000D01*
X162601715Y-139886571D01*
X162458858Y-139886571D01*
X160958858Y-139886571D02*
X160601715Y-140886571D01*
X160244573Y-139886571D01*
X159744573Y-139529429D02*
X159673144Y-139458000D01*
X159530287Y-139386571D01*
X159173144Y-139386571D01*
X159030287Y-139458000D01*
X158958858Y-139529429D01*
X158887430Y-139672286D01*
X158887430Y-139815143D01*
X158958858Y-140029429D01*
X159816001Y-140886571D01*
X158887430Y-140886571D01*
D12*
X154305000Y-137730000D03*
X156845000Y-137730000D03*
X159385000Y-137730000D03*
X161925000Y-137730000D03*
X164465000Y-137730000D03*
X167005000Y-137730000D03*
X169545000Y-137730000D03*
X172085000Y-137730000D03*
X172085000Y-113730000D03*
X169545000Y-113730000D03*
X167005000Y-113730000D03*
X164465000Y-113730000D03*
X161925000Y-113730000D03*
X159385000Y-113730000D03*
X156845000Y-113730000D03*
X154305000Y-113730000D03*
D13*
X146685000Y-130175000D03*
X149225000Y-130175000D03*
X151765000Y-130175000D03*
X154305000Y-130175000D03*
X156845000Y-130175000D03*
X159385000Y-130175000D03*
X161925000Y-130175000D03*
X164465000Y-130175000D03*
X167005000Y-130175000D03*
X169545000Y-130175000D03*
X172085000Y-130175000D03*
X174625000Y-130175000D03*
X177165000Y-130175000D03*
X179705000Y-130175000D03*
X179705000Y-122555000D03*
X177165000Y-122555000D03*
X174625000Y-122555000D03*
X172085000Y-122555000D03*
X169545000Y-122555000D03*
X167005000Y-122555000D03*
X164465000Y-122555000D03*
X161925000Y-122555000D03*
X159385000Y-122555000D03*
X156845000Y-122555000D03*
X154305000Y-122555000D03*
X151765000Y-122555000D03*
X149225000Y-122555000D03*
X146685000Y-122555000D03*
D14*
X180975000Y-116205000D03*
D15*
X180975000Y-118745000D03*
D16*
X163830000Y-134620000D03*
X149225000Y-134620000D03*
D17*
X146050000Y-134620000D03*
D18*
X146050000Y-137160000D03*
X146050000Y-139700000D03*
D19*
X164465000Y-108585000D03*
X164465000Y-103505000D03*
X172085000Y-108585000D03*
X172085000Y-103505000D03*
X154940000Y-108585000D03*
X154940000Y-103505000D03*
X162560000Y-108585000D03*
X162560000Y-103505000D03*
X173990000Y-108585000D03*
X173990000Y-103505000D03*
X181610000Y-108585000D03*
X181610000Y-103505000D03*
X145415000Y-108585000D03*
X145415000Y-103505000D03*
X153035000Y-108585000D03*
X153035000Y-103505000D03*
D20*
X148084000Y-105918000D03*
X179084000Y-105918000D03*
X173084000Y-105918000D03*
X154084000Y-105918000D03*
D21*
X165735000Y-127000000D03*
X160020000Y-127000000D03*
X179070000Y-115570000D03*
X168275000Y-115570000D03*
X170815000Y-116840000D03*
X149225000Y-116840000D03*
X147955000Y-118110000D03*
X169545000Y-118110000D03*
X168275000Y-119380000D03*
X146685000Y-119380000D03*
X146685000Y-111125000D03*
X173990000Y-111125000D03*
D22*
X146685000Y-130175000D02*
X146685000Y-132080000D01*
X146050000Y-132715000D02*
X146050000Y-134620000D01*
X146685000Y-132080000D02*
X146050000Y-132715000D01*
X149225000Y-134620000D02*
X146050000Y-134620000D01*
D23*
X176530000Y-106045000D02*
X178957000Y-106045000D01*
X178957000Y-106045000D02*
X179084000Y-105918000D01*
X180975000Y-118745000D02*
X179705000Y-118745000D01*
X176530000Y-115570000D02*
X176530000Y-106045000D01*
X176530000Y-106045000D02*
X176530000Y-103505000D01*
X179705000Y-118745000D02*
X176530000Y-115570000D01*
D24*
X180975000Y-118745000D02*
X181610000Y-119380000D01*
X181610000Y-119380000D02*
X181610000Y-125095000D01*
X179705000Y-127000000D02*
X165735000Y-127000000D01*
X181610000Y-125095000D02*
X179705000Y-127000000D01*
X160020000Y-127000000D02*
X160020000Y-126365000D01*
X160020000Y-126365000D02*
X161925000Y-124460000D01*
X161925000Y-122555000D02*
X161925000Y-124460000D01*
X164465000Y-128270000D02*
X164465000Y-130175000D01*
X165735000Y-127000000D02*
X164465000Y-128270000D01*
X153035000Y-103505000D02*
X145415000Y-103505000D01*
X154940000Y-103505000D02*
X153035000Y-103505000D01*
X162560000Y-103505000D02*
X154940000Y-103505000D01*
X164465000Y-103505000D02*
X162560000Y-103505000D01*
X172085000Y-103505000D02*
X164465000Y-103505000D01*
X173990000Y-103505000D02*
X172085000Y-103505000D01*
X176530000Y-103505000D02*
X173990000Y-103505000D01*
X176530000Y-103505000D02*
X181610000Y-103505000D01*
X181610000Y-118745000D02*
X180975000Y-118110000D01*
X180975000Y-118110000D02*
X180975000Y-118745000D01*
D23*
X145415000Y-108585000D02*
X145415000Y-120650000D01*
X156210000Y-127000000D02*
X159385000Y-130175000D01*
X146050000Y-127000000D02*
X156210000Y-127000000D01*
X144780000Y-125730000D02*
X146050000Y-127000000D01*
X144780000Y-121285000D02*
X144780000Y-125730000D01*
X145415000Y-120650000D02*
X144780000Y-121285000D01*
D24*
X168275000Y-115570000D02*
X166370000Y-117475000D01*
X166370000Y-117475000D02*
X166370000Y-120015000D01*
X166370000Y-120015000D02*
X167005000Y-120650000D01*
X167005000Y-120650000D02*
X167005000Y-122555000D01*
X179070000Y-115570000D02*
X179705000Y-116205000D01*
X179705000Y-116205000D02*
X180975000Y-116205000D01*
X161925000Y-130175000D02*
X161925000Y-127635000D01*
X167005000Y-123825000D02*
X167005000Y-122555000D01*
X165735000Y-125095000D02*
X167005000Y-123825000D01*
X164465000Y-125095000D02*
X165735000Y-125095000D01*
X161925000Y-127635000D02*
X164465000Y-125095000D01*
X161925000Y-130175000D02*
X161925000Y-132715000D01*
X161925000Y-132715000D02*
X163830000Y-134620000D01*
D23*
X154305000Y-137730000D02*
X152970000Y-137730000D01*
X152400000Y-137160000D02*
X146050000Y-137160000D01*
X152970000Y-137730000D02*
X152400000Y-137160000D01*
D22*
X149225000Y-130175000D02*
X149225000Y-131445000D01*
X154305000Y-136525000D02*
X154305000Y-137730000D01*
X149225000Y-131445000D02*
X154305000Y-136525000D01*
X146050000Y-139700000D02*
X155575000Y-139700000D01*
X155575000Y-139700000D02*
X156845000Y-138430000D01*
X156845000Y-138430000D02*
X156845000Y-137730000D01*
X151765000Y-130175000D02*
X151765000Y-131445000D01*
X156845000Y-136525000D02*
X156845000Y-137730000D01*
X151765000Y-131445000D02*
X156845000Y-136525000D01*
X154305000Y-130175000D02*
X154305000Y-131445000D01*
X159385000Y-136525000D02*
X159385000Y-137730000D01*
X154305000Y-131445000D02*
X159385000Y-136525000D01*
X156845000Y-130175000D02*
X156845000Y-131445000D01*
X161925000Y-136525000D02*
X161925000Y-137730000D01*
X156845000Y-131445000D02*
X161925000Y-136525000D01*
X172085000Y-130175000D02*
X172085000Y-131445000D01*
X169480000Y-132715000D02*
X164465000Y-137730000D01*
X170815000Y-132715000D02*
X169480000Y-132715000D01*
X172085000Y-131445000D02*
X170815000Y-132715000D01*
X174625000Y-130175000D02*
X174625000Y-131445000D01*
X170750000Y-133985000D02*
X167005000Y-137730000D01*
X172085000Y-133985000D02*
X170750000Y-133985000D01*
X174625000Y-131445000D02*
X172085000Y-133985000D01*
X177165000Y-130175000D02*
X177165000Y-131445000D01*
X172020000Y-135255000D02*
X169545000Y-137730000D01*
X173355000Y-135255000D02*
X172020000Y-135255000D01*
X177165000Y-131445000D02*
X173355000Y-135255000D01*
X179705000Y-130175000D02*
X179705000Y-131445000D01*
X173290000Y-136525000D02*
X172085000Y-137730000D01*
X174625000Y-136525000D02*
X173290000Y-136525000D01*
X179705000Y-131445000D02*
X174625000Y-136525000D01*
X179705000Y-122555000D02*
X179705000Y-121350000D01*
X179705000Y-121350000D02*
X172085000Y-113730000D01*
X177165000Y-122555000D02*
X177165000Y-121350000D01*
X177165000Y-121350000D02*
X169545000Y-113730000D01*
X159385000Y-122555000D02*
X159385000Y-121350000D01*
X159385000Y-121350000D02*
X167005000Y-113730000D01*
X156845000Y-122555000D02*
X156845000Y-121350000D01*
X156845000Y-121350000D02*
X164465000Y-113730000D01*
X154305000Y-122555000D02*
X154305000Y-121350000D01*
X154305000Y-121350000D02*
X161925000Y-113730000D01*
X151765000Y-122555000D02*
X151765000Y-121350000D01*
X151765000Y-121350000D02*
X159385000Y-113730000D01*
X149225000Y-122555000D02*
X149225000Y-121350000D01*
X149225000Y-121350000D02*
X156845000Y-113730000D01*
X146685000Y-122555000D02*
X146685000Y-121350000D01*
X146685000Y-121350000D02*
X154305000Y-113730000D01*
D23*
X170815000Y-116840000D02*
X170815000Y-118110000D01*
X170815000Y-118110000D02*
X174625000Y-121920000D01*
X174625000Y-121920000D02*
X174625000Y-122555000D01*
X149225000Y-116840000D02*
X149225000Y-115570000D01*
X153035000Y-111760000D02*
X161925000Y-111760000D01*
X149225000Y-115570000D02*
X153035000Y-111760000D01*
X161925000Y-111760000D02*
X164465000Y-109220000D01*
X164465000Y-109220000D02*
X164465000Y-108585000D01*
X174625000Y-122555000D02*
X174625000Y-121920000D01*
X169545000Y-118110000D02*
X169545000Y-119380000D01*
X169545000Y-119380000D02*
X172085000Y-121920000D01*
X172085000Y-121920000D02*
X172085000Y-122555000D01*
X147955000Y-118110000D02*
X147955000Y-114300000D01*
X153670000Y-110490000D02*
X154940000Y-109220000D01*
X151765000Y-110490000D02*
X153670000Y-110490000D01*
X147955000Y-114300000D02*
X151765000Y-110490000D01*
X172085000Y-122555000D02*
X172085000Y-121920000D01*
X154940000Y-109220000D02*
X154940000Y-108585000D01*
X168275000Y-119380000D02*
X168275000Y-120650000D01*
X146685000Y-119380000D02*
X146685000Y-111125000D01*
X173990000Y-111125000D02*
X173990000Y-108585000D01*
X168275000Y-120650000D02*
X169545000Y-121920000D01*
X169545000Y-121920000D02*
X169545000Y-122555000D01*
X169545000Y-122555000D02*
X169545000Y-121920000D01*
D25*
G36*
X178943000Y-136525000D02*
X178953006Y-136574410D01*
X178981447Y-136616035D01*
X179023841Y-136643315D01*
X179070000Y-136652000D01*
X181483000Y-136652000D01*
X181483000Y-137668000D01*
X177927000Y-137668000D01*
X177927000Y-135382000D01*
X178943000Y-135382000D01*
X178943000Y-136525000D01*
X178943000Y-136525000D01*
G37*
X178943000Y-136525000D02*
X178953006Y-136574410D01*
X178981447Y-136616035D01*
X179023841Y-136643315D01*
X179070000Y-136652000D01*
X181483000Y-136652000D01*
X181483000Y-137668000D01*
X177927000Y-137668000D01*
X177927000Y-135382000D01*
X178943000Y-135382000D01*
X178943000Y-136525000D01*
G36*
X180213000Y-135128000D02*
X179197000Y-135128000D01*
X179197000Y-134112000D01*
X180213000Y-134112000D01*
X180213000Y-135128000D01*
X180213000Y-135128000D01*
G37*
X180213000Y-135128000D02*
X179197000Y-135128000D01*
X179197000Y-134112000D01*
X180213000Y-134112000D01*
X180213000Y-135128000D01*
M02*
