G04 #@! TF.FileFunction,Legend,Bot*
%FSLAX46Y46*%
G04 Gerber Fmt 4.6, Leading zero omitted, Abs format (unit mm)*
G04 Created by KiCad (PCBNEW 4.0.2-stable) date 2016-08-04 01:01:48*
%MOMM*%
G01*
G04 APERTURE LIST*
%ADD10C,0.100000*%
%ADD11C,0.300000*%
%ADD12C,0.150000*%
G04 APERTURE END LIST*
D10*
D11*
X168846428Y-111867143D02*
X167703571Y-111867143D01*
X168275000Y-112438571D02*
X168275000Y-111295714D01*
X181717143Y-112458572D02*
X181717143Y-113601429D01*
X181546428Y-104882143D02*
X180403571Y-104882143D01*
X180975000Y-105453571D02*
X180975000Y-104310714D01*
D12*
X148693095Y-106497381D02*
X148693095Y-105497381D01*
X148455000Y-105497381D01*
X148312142Y-105545000D01*
X148216904Y-105640238D01*
X148169285Y-105735476D01*
X148121666Y-105925952D01*
X148121666Y-106068810D01*
X148169285Y-106259286D01*
X148216904Y-106354524D01*
X148312142Y-106449762D01*
X148455000Y-106497381D01*
X148693095Y-106497381D01*
X147169285Y-106497381D02*
X147740714Y-106497381D01*
X147455000Y-106497381D02*
X147455000Y-105497381D01*
X147550238Y-105640238D01*
X147645476Y-105735476D01*
X147740714Y-105783095D01*
X151320476Y-105862381D02*
X151891905Y-105862381D01*
X151606191Y-105862381D02*
X151606191Y-104862381D01*
X151701429Y-105005238D01*
X151796667Y-105100476D01*
X151891905Y-105148095D01*
X150463333Y-104862381D02*
X150653810Y-104862381D01*
X150749048Y-104910000D01*
X150796667Y-104957619D01*
X150891905Y-105100476D01*
X150939524Y-105290952D01*
X150939524Y-105671905D01*
X150891905Y-105767143D01*
X150844286Y-105814762D01*
X150749048Y-105862381D01*
X150558571Y-105862381D01*
X150463333Y-105814762D01*
X150415714Y-105767143D01*
X150368095Y-105671905D01*
X150368095Y-105433810D01*
X150415714Y-105338571D01*
X150463333Y-105290952D01*
X150558571Y-105243333D01*
X150749048Y-105243333D01*
X150844286Y-105290952D01*
X150891905Y-105338571D01*
X150939524Y-105433810D01*
X173545476Y-105862381D02*
X173355000Y-105862381D01*
X173259761Y-105814762D01*
X173212142Y-105767143D01*
X173116904Y-105624286D01*
X173069285Y-105433810D01*
X173069285Y-105052857D01*
X173116904Y-104957619D01*
X173164523Y-104910000D01*
X173259761Y-104862381D01*
X173450238Y-104862381D01*
X173545476Y-104910000D01*
X173593095Y-104957619D01*
X173640714Y-105052857D01*
X173640714Y-105290952D01*
X173593095Y-105386190D01*
X173545476Y-105433810D01*
X173450238Y-105481429D01*
X173259761Y-105481429D01*
X173164523Y-105433810D01*
X173116904Y-105386190D01*
X173069285Y-105290952D01*
X173450238Y-129420952D02*
X173545476Y-129373333D01*
X173593095Y-129325714D01*
X173640714Y-129230476D01*
X173640714Y-129182857D01*
X173593095Y-129087619D01*
X173545476Y-129040000D01*
X173450238Y-128992381D01*
X173259761Y-128992381D01*
X173164523Y-129040000D01*
X173116904Y-129087619D01*
X173069285Y-129182857D01*
X173069285Y-129230476D01*
X173116904Y-129325714D01*
X173164523Y-129373333D01*
X173259761Y-129420952D01*
X173450238Y-129420952D01*
X173545476Y-129468571D01*
X173593095Y-129516190D01*
X173640714Y-129611429D01*
X173640714Y-129801905D01*
X173593095Y-129897143D01*
X173545476Y-129944762D01*
X173450238Y-129992381D01*
X173259761Y-129992381D01*
X173164523Y-129944762D01*
X173116904Y-129897143D01*
X173069285Y-129801905D01*
X173069285Y-129611429D01*
X173116904Y-129516190D01*
X173164523Y-129468571D01*
X173259761Y-129420952D01*
X151479285Y-129992381D02*
X152050714Y-129992381D01*
X151765000Y-129992381D02*
X151765000Y-128992381D01*
X151860238Y-129135238D01*
X151955476Y-129230476D01*
X152050714Y-129278095D01*
X179871666Y-138787143D02*
X179919285Y-138834762D01*
X180062142Y-138882381D01*
X180157380Y-138882381D01*
X180300238Y-138834762D01*
X180395476Y-138739524D01*
X180443095Y-138644286D01*
X180490714Y-138453810D01*
X180490714Y-138310952D01*
X180443095Y-138120476D01*
X180395476Y-138025238D01*
X180300238Y-137930000D01*
X180157380Y-137882381D01*
X180062142Y-137882381D01*
X179919285Y-137930000D01*
X179871666Y-137977619D01*
X178919285Y-138882381D02*
X179490714Y-138882381D01*
X179205000Y-138882381D02*
X179205000Y-137882381D01*
X179300238Y-138025238D01*
X179395476Y-138120476D01*
X179490714Y-138168095D01*
X179252619Y-129802143D02*
X179205000Y-129849762D01*
X179157381Y-129945000D01*
X179157381Y-130183096D01*
X179205000Y-130278334D01*
X179252619Y-130325953D01*
X179347857Y-130373572D01*
X179443095Y-130373572D01*
X179585952Y-130325953D01*
X180157381Y-129754524D01*
X180157381Y-130373572D01*
X179252619Y-130754524D02*
X179205000Y-130802143D01*
X179157381Y-130897381D01*
X179157381Y-131135477D01*
X179205000Y-131230715D01*
X179252619Y-131278334D01*
X179347857Y-131325953D01*
X179443095Y-131325953D01*
X179585952Y-131278334D01*
X180157381Y-130706905D01*
X180157381Y-131325953D01*
X179490714Y-131754524D02*
X180490714Y-131754524D01*
X179538333Y-131754524D02*
X179490714Y-131849762D01*
X179490714Y-132040239D01*
X179538333Y-132135477D01*
X179585952Y-132183096D01*
X179681190Y-132230715D01*
X179966905Y-132230715D01*
X180062143Y-132183096D01*
X180109762Y-132135477D01*
X180157381Y-132040239D01*
X180157381Y-131849762D01*
X180109762Y-131754524D01*
X179633571Y-132992620D02*
X179633571Y-132659286D01*
X180157381Y-132659286D02*
X179157381Y-132659286D01*
X179157381Y-133135477D01*
X167171666Y-107672143D02*
X167219285Y-107719762D01*
X167362142Y-107767381D01*
X167457380Y-107767381D01*
X167600238Y-107719762D01*
X167695476Y-107624524D01*
X167743095Y-107529286D01*
X167790714Y-107338810D01*
X167790714Y-107195952D01*
X167743095Y-107005476D01*
X167695476Y-106910238D01*
X167600238Y-106815000D01*
X167457380Y-106767381D01*
X167362142Y-106767381D01*
X167219285Y-106815000D01*
X167171666Y-106862619D01*
X166790714Y-106862619D02*
X166743095Y-106815000D01*
X166647857Y-106767381D01*
X166409761Y-106767381D01*
X166314523Y-106815000D01*
X166266904Y-106862619D01*
X166219285Y-106957857D01*
X166219285Y-107053095D01*
X166266904Y-107195952D01*
X166838333Y-107767381D01*
X166219285Y-107767381D01*
X170622381Y-108962381D02*
X170622381Y-108390952D01*
X170622381Y-108676666D02*
X169622381Y-108676666D01*
X169765238Y-108581428D01*
X169860476Y-108486190D01*
X169908095Y-108390952D01*
X169622381Y-109581428D02*
X169622381Y-109676667D01*
X169670000Y-109771905D01*
X169717619Y-109819524D01*
X169812857Y-109867143D01*
X170003333Y-109914762D01*
X170241429Y-109914762D01*
X170431905Y-109867143D01*
X170527143Y-109819524D01*
X170574762Y-109771905D01*
X170622381Y-109676667D01*
X170622381Y-109581428D01*
X170574762Y-109486190D01*
X170527143Y-109438571D01*
X170431905Y-109390952D01*
X170241429Y-109343333D01*
X170003333Y-109343333D01*
X169812857Y-109390952D01*
X169717619Y-109438571D01*
X169670000Y-109486190D01*
X169622381Y-109581428D01*
X169622381Y-110533809D02*
X169622381Y-110629048D01*
X169670000Y-110724286D01*
X169717619Y-110771905D01*
X169812857Y-110819524D01*
X170003333Y-110867143D01*
X170241429Y-110867143D01*
X170431905Y-110819524D01*
X170527143Y-110771905D01*
X170574762Y-110724286D01*
X170622381Y-110629048D01*
X170622381Y-110533809D01*
X170574762Y-110438571D01*
X170527143Y-110390952D01*
X170431905Y-110343333D01*
X170241429Y-110295714D01*
X170003333Y-110295714D01*
X169812857Y-110343333D01*
X169717619Y-110390952D01*
X169670000Y-110438571D01*
X169622381Y-110533809D01*
X169955714Y-111724286D02*
X170622381Y-111724286D01*
X169955714Y-111295714D02*
X170479524Y-111295714D01*
X170574762Y-111343333D01*
X170622381Y-111438571D01*
X170622381Y-111581429D01*
X170574762Y-111676667D01*
X170527143Y-111724286D01*
X170098571Y-112533810D02*
X170098571Y-112200476D01*
X170622381Y-112200476D02*
X169622381Y-112200476D01*
X169622381Y-112676667D01*
X162091666Y-138787143D02*
X162139285Y-138834762D01*
X162282142Y-138882381D01*
X162377380Y-138882381D01*
X162520238Y-138834762D01*
X162615476Y-138739524D01*
X162663095Y-138644286D01*
X162710714Y-138453810D01*
X162710714Y-138310952D01*
X162663095Y-138120476D01*
X162615476Y-138025238D01*
X162520238Y-137930000D01*
X162377380Y-137882381D01*
X162282142Y-137882381D01*
X162139285Y-137930000D01*
X162091666Y-137977619D01*
X161758333Y-137882381D02*
X161139285Y-137882381D01*
X161472619Y-138263333D01*
X161329761Y-138263333D01*
X161234523Y-138310952D01*
X161186904Y-138358571D01*
X161139285Y-138453810D01*
X161139285Y-138691905D01*
X161186904Y-138787143D01*
X161234523Y-138834762D01*
X161329761Y-138882381D01*
X161615476Y-138882381D01*
X161710714Y-138834762D01*
X161758333Y-138787143D01*
X160837619Y-132977143D02*
X160790000Y-133024762D01*
X160742381Y-133120000D01*
X160742381Y-133358096D01*
X160790000Y-133453334D01*
X160837619Y-133500953D01*
X160932857Y-133548572D01*
X161028095Y-133548572D01*
X161170952Y-133500953D01*
X161742381Y-132929524D01*
X161742381Y-133548572D01*
X160837619Y-133929524D02*
X160790000Y-133977143D01*
X160742381Y-134072381D01*
X160742381Y-134310477D01*
X160790000Y-134405715D01*
X160837619Y-134453334D01*
X160932857Y-134500953D01*
X161028095Y-134500953D01*
X161170952Y-134453334D01*
X161742381Y-133881905D01*
X161742381Y-134500953D01*
X161075714Y-134929524D02*
X162075714Y-134929524D01*
X161123333Y-134929524D02*
X161075714Y-135024762D01*
X161075714Y-135215239D01*
X161123333Y-135310477D01*
X161170952Y-135358096D01*
X161266190Y-135405715D01*
X161551905Y-135405715D01*
X161647143Y-135358096D01*
X161694762Y-135310477D01*
X161742381Y-135215239D01*
X161742381Y-135024762D01*
X161694762Y-134929524D01*
X161218571Y-136167620D02*
X161218571Y-135834286D01*
X161742381Y-135834286D02*
X160742381Y-135834286D01*
X160742381Y-136310477D01*
X146502381Y-117133810D02*
X145502381Y-117133810D01*
X146407143Y-118181429D02*
X146454762Y-118133810D01*
X146502381Y-117990953D01*
X146502381Y-117895715D01*
X146454762Y-117752857D01*
X146359524Y-117657619D01*
X146264286Y-117610000D01*
X146073810Y-117562381D01*
X145930952Y-117562381D01*
X145740476Y-117610000D01*
X145645238Y-117657619D01*
X145550000Y-117752857D01*
X145502381Y-117895715D01*
X145502381Y-117990953D01*
X145550000Y-118133810D01*
X145597619Y-118181429D01*
X146502381Y-119133810D02*
X146502381Y-118562381D01*
X146502381Y-118848095D02*
X145502381Y-118848095D01*
X145645238Y-118752857D01*
X145740476Y-118657619D01*
X145788095Y-118562381D01*
X178474048Y-117641667D02*
X177997857Y-117641667D01*
X178569286Y-117927381D02*
X178235953Y-116927381D01*
X177902619Y-117927381D01*
X177712143Y-116927381D02*
X177140714Y-116927381D01*
X177426429Y-117927381D02*
X177426429Y-116927381D01*
X176807381Y-117927381D02*
X176807381Y-116927381D01*
X176474047Y-117641667D01*
X176140714Y-116927381D01*
X176140714Y-117927381D01*
X175664524Y-117403571D02*
X175331190Y-117403571D01*
X175188333Y-117927381D02*
X175664524Y-117927381D01*
X175664524Y-116927381D01*
X175188333Y-116927381D01*
X174235952Y-116975000D02*
X174331190Y-116927381D01*
X174474047Y-116927381D01*
X174616905Y-116975000D01*
X174712143Y-117070238D01*
X174759762Y-117165476D01*
X174807381Y-117355952D01*
X174807381Y-117498810D01*
X174759762Y-117689286D01*
X174712143Y-117784524D01*
X174616905Y-117879762D01*
X174474047Y-117927381D01*
X174378809Y-117927381D01*
X174235952Y-117879762D01*
X174188333Y-117832143D01*
X174188333Y-117498810D01*
X174378809Y-117498810D01*
X173807381Y-117641667D02*
X173331190Y-117641667D01*
X173902619Y-117927381D02*
X173569286Y-116927381D01*
X173235952Y-117927381D01*
X172997857Y-116927381D02*
X172378809Y-116927381D01*
X172712143Y-117308333D01*
X172569285Y-117308333D01*
X172474047Y-117355952D01*
X172426428Y-117403571D01*
X172378809Y-117498810D01*
X172378809Y-117736905D01*
X172426428Y-117832143D01*
X172474047Y-117879762D01*
X172569285Y-117927381D01*
X172855000Y-117927381D01*
X172950238Y-117879762D01*
X172997857Y-117832143D01*
X171997857Y-117022619D02*
X171950238Y-116975000D01*
X171855000Y-116927381D01*
X171616904Y-116927381D01*
X171521666Y-116975000D01*
X171474047Y-117022619D01*
X171426428Y-117117857D01*
X171426428Y-117213095D01*
X171474047Y-117355952D01*
X172045476Y-117927381D01*
X171426428Y-117927381D01*
X170855000Y-117355952D02*
X170950238Y-117308333D01*
X170997857Y-117260714D01*
X171045476Y-117165476D01*
X171045476Y-117117857D01*
X170997857Y-117022619D01*
X170950238Y-116975000D01*
X170855000Y-116927381D01*
X170664523Y-116927381D01*
X170569285Y-116975000D01*
X170521666Y-117022619D01*
X170474047Y-117117857D01*
X170474047Y-117165476D01*
X170521666Y-117260714D01*
X170569285Y-117308333D01*
X170664523Y-117355952D01*
X170855000Y-117355952D01*
X170950238Y-117403571D01*
X170997857Y-117451190D01*
X171045476Y-117546429D01*
X171045476Y-117736905D01*
X170997857Y-117832143D01*
X170950238Y-117879762D01*
X170855000Y-117927381D01*
X170664523Y-117927381D01*
X170569285Y-117879762D01*
X170521666Y-117832143D01*
X170474047Y-117736905D01*
X170474047Y-117546429D01*
X170521666Y-117451190D01*
X170569285Y-117403571D01*
X170664523Y-117355952D01*
X170045476Y-117546429D02*
X169283571Y-117546429D01*
X168807381Y-117927381D02*
X168807381Y-116927381D01*
X168426428Y-116927381D01*
X168331190Y-116975000D01*
X168283571Y-117022619D01*
X168235952Y-117117857D01*
X168235952Y-117260714D01*
X168283571Y-117355952D01*
X168331190Y-117403571D01*
X168426428Y-117451190D01*
X168807381Y-117451190D01*
X150661666Y-138882381D02*
X150995000Y-138406190D01*
X151233095Y-138882381D02*
X151233095Y-137882381D01*
X150852142Y-137882381D01*
X150756904Y-137930000D01*
X150709285Y-137977619D01*
X150661666Y-138072857D01*
X150661666Y-138215714D01*
X150709285Y-138310952D01*
X150756904Y-138358571D01*
X150852142Y-138406190D01*
X151233095Y-138406190D01*
X149709285Y-138882381D02*
X150280714Y-138882381D01*
X149995000Y-138882381D02*
X149995000Y-137882381D01*
X150090238Y-138025238D01*
X150185476Y-138120476D01*
X150280714Y-138168095D01*
X151090238Y-136342381D02*
X151661667Y-136342381D01*
X151375953Y-136342381D02*
X151375953Y-135342381D01*
X151471191Y-135485238D01*
X151566429Y-135580476D01*
X151661667Y-135628095D01*
X150471191Y-135342381D02*
X150375952Y-135342381D01*
X150280714Y-135390000D01*
X150233095Y-135437619D01*
X150185476Y-135532857D01*
X150137857Y-135723333D01*
X150137857Y-135961429D01*
X150185476Y-136151905D01*
X150233095Y-136247143D01*
X150280714Y-136294762D01*
X150375952Y-136342381D01*
X150471191Y-136342381D01*
X150566429Y-136294762D01*
X150614048Y-136247143D01*
X150661667Y-136151905D01*
X150709286Y-135961429D01*
X150709286Y-135723333D01*
X150661667Y-135532857D01*
X150614048Y-135437619D01*
X150566429Y-135390000D01*
X150471191Y-135342381D01*
X149709286Y-136342381D02*
X149709286Y-135342381D01*
X149614048Y-135961429D02*
X149328333Y-136342381D01*
X149328333Y-135675714D02*
X149709286Y-136056667D01*
X171291191Y-135866190D02*
X171291191Y-136342381D01*
X171624524Y-135342381D02*
X171291191Y-135866190D01*
X170957857Y-135342381D01*
X170100714Y-136342381D02*
X170672143Y-136342381D01*
X170386429Y-136342381D02*
X170386429Y-135342381D01*
X170481667Y-135485238D01*
X170576905Y-135580476D01*
X170672143Y-135628095D01*
X169965476Y-133167381D02*
X170536905Y-133167381D01*
X170251191Y-133167381D02*
X170251191Y-132167381D01*
X170346429Y-132310238D01*
X170441667Y-132405476D01*
X170536905Y-132453095D01*
X169108333Y-132167381D02*
X169298810Y-132167381D01*
X169394048Y-132215000D01*
X169441667Y-132262619D01*
X169536905Y-132405476D01*
X169584524Y-132595952D01*
X169584524Y-132976905D01*
X169536905Y-133072143D01*
X169489286Y-133119762D01*
X169394048Y-133167381D01*
X169203571Y-133167381D01*
X169108333Y-133119762D01*
X169060714Y-133072143D01*
X169013095Y-132976905D01*
X169013095Y-132738810D01*
X169060714Y-132643571D01*
X169108333Y-132595952D01*
X169203571Y-132548333D01*
X169394048Y-132548333D01*
X169489286Y-132595952D01*
X169536905Y-132643571D01*
X169584524Y-132738810D01*
X168584524Y-133167381D02*
X168584524Y-132167381D01*
X168251190Y-132881667D01*
X167917857Y-132167381D01*
X167917857Y-133167381D01*
X167441667Y-133167381D02*
X167441667Y-132167381D01*
X167441667Y-132643571D02*
X166870238Y-132643571D01*
X166870238Y-133167381D02*
X166870238Y-132167381D01*
X166489286Y-132500714D02*
X165965476Y-132500714D01*
X166489286Y-133167381D01*
X165965476Y-133167381D01*
M02*
