G04 #@! TF.FileFunction,Legend,Top*
%FSLAX46Y46*%
G04 Gerber Fmt 4.6, Leading zero omitted, Abs format (unit mm)*
G04 Created by KiCad (PCBNEW 4.0.2+e4-6225~38~ubuntu14.04.1-stable) date Seg 01 Ago 2016 19:20:02 BRT*
%MOMM*%
G01*
G04 APERTURE LIST*
%ADD10C,0.100000*%
%ADD11C,0.200000*%
%ADD12C,0.120000*%
%ADD13C,0.150000*%
G04 APERTURE END LIST*
D10*
D11*
X190111428Y-108116667D02*
X190587619Y-108116667D01*
X190016190Y-108402381D02*
X190349523Y-107402381D01*
X190682857Y-108402381D01*
X190873333Y-107402381D02*
X191444762Y-107402381D01*
X191159047Y-108402381D02*
X191159047Y-107402381D01*
X191635238Y-107735714D02*
X192016190Y-107735714D01*
X191778095Y-107402381D02*
X191778095Y-108259524D01*
X191825714Y-108354762D01*
X191920952Y-108402381D01*
X192016190Y-108402381D01*
X192349524Y-108402381D02*
X192349524Y-107735714D01*
X192349524Y-107402381D02*
X192301905Y-107450000D01*
X192349524Y-107497619D01*
X192397143Y-107450000D01*
X192349524Y-107402381D01*
X192349524Y-107497619D01*
X192825714Y-107735714D02*
X192825714Y-108402381D01*
X192825714Y-107830952D02*
X192873333Y-107783333D01*
X192968571Y-107735714D01*
X193111429Y-107735714D01*
X193206667Y-107783333D01*
X193254286Y-107878571D01*
X193254286Y-108402381D01*
X193635238Y-107735714D02*
X193873333Y-108402381D01*
X194111429Y-107735714D02*
X193873333Y-108402381D01*
X193778095Y-108640476D01*
X193730476Y-108688095D01*
X193635238Y-108735714D01*
X194635238Y-107830952D02*
X194540000Y-107783333D01*
X194492381Y-107735714D01*
X194444762Y-107640476D01*
X194444762Y-107592857D01*
X194492381Y-107497619D01*
X194540000Y-107450000D01*
X194635238Y-107402381D01*
X194825715Y-107402381D01*
X194920953Y-107450000D01*
X194968572Y-107497619D01*
X195016191Y-107592857D01*
X195016191Y-107640476D01*
X194968572Y-107735714D01*
X194920953Y-107783333D01*
X194825715Y-107830952D01*
X194635238Y-107830952D01*
X194540000Y-107878571D01*
X194492381Y-107926190D01*
X194444762Y-108021429D01*
X194444762Y-108211905D01*
X194492381Y-108307143D01*
X194540000Y-108354762D01*
X194635238Y-108402381D01*
X194825715Y-108402381D01*
X194920953Y-108354762D01*
X194968572Y-108307143D01*
X195016191Y-108211905D01*
X195016191Y-108021429D01*
X194968572Y-107926190D01*
X194920953Y-107878571D01*
X194825715Y-107830952D01*
X195920953Y-107402381D02*
X195444762Y-107402381D01*
X195397143Y-107878571D01*
X195444762Y-107830952D01*
X195540000Y-107783333D01*
X195778096Y-107783333D01*
X195873334Y-107830952D01*
X195920953Y-107878571D01*
X195968572Y-107973810D01*
X195968572Y-108211905D01*
X195920953Y-108307143D01*
X195873334Y-108354762D01*
X195778096Y-108402381D01*
X195540000Y-108402381D01*
X195444762Y-108354762D01*
X195397143Y-108307143D01*
D12*
X174588333Y-109812857D02*
X174702619Y-109850952D01*
X174740714Y-109889048D01*
X174778809Y-109965238D01*
X174778809Y-110079524D01*
X174740714Y-110155714D01*
X174702619Y-110193810D01*
X174626428Y-110231905D01*
X174321666Y-110231905D01*
X174321666Y-109431905D01*
X174588333Y-109431905D01*
X174664523Y-109470000D01*
X174702619Y-109508095D01*
X174740714Y-109584286D01*
X174740714Y-109660476D01*
X174702619Y-109736667D01*
X174664523Y-109774762D01*
X174588333Y-109812857D01*
X174321666Y-109812857D01*
X175121666Y-110231905D02*
X175121666Y-109698571D01*
X175121666Y-109850952D02*
X175159761Y-109774762D01*
X175197857Y-109736667D01*
X175274047Y-109698571D01*
X175350238Y-109698571D01*
X175731190Y-110231905D02*
X175654999Y-110193810D01*
X175616904Y-110155714D01*
X175578809Y-110079524D01*
X175578809Y-109850952D01*
X175616904Y-109774762D01*
X175654999Y-109736667D01*
X175731190Y-109698571D01*
X175845476Y-109698571D01*
X175921666Y-109736667D01*
X175959761Y-109774762D01*
X175997857Y-109850952D01*
X175997857Y-110079524D01*
X175959761Y-110155714D01*
X175921666Y-110193810D01*
X175845476Y-110231905D01*
X175731190Y-110231905D01*
X176683571Y-110193810D02*
X176607381Y-110231905D01*
X176455000Y-110231905D01*
X176378809Y-110193810D01*
X176340714Y-110155714D01*
X176302619Y-110079524D01*
X176302619Y-109850952D01*
X176340714Y-109774762D01*
X176378809Y-109736667D01*
X176455000Y-109698571D01*
X176607381Y-109698571D01*
X176683571Y-109736667D01*
X177026428Y-110231905D02*
X177026428Y-109431905D01*
X177369285Y-110231905D02*
X177369285Y-109812857D01*
X177331190Y-109736667D01*
X177255000Y-109698571D01*
X177140714Y-109698571D01*
X177064523Y-109736667D01*
X177026428Y-109774762D01*
X178055000Y-110193810D02*
X177978810Y-110231905D01*
X177826429Y-110231905D01*
X177750238Y-110193810D01*
X177712143Y-110117619D01*
X177712143Y-109812857D01*
X177750238Y-109736667D01*
X177826429Y-109698571D01*
X177978810Y-109698571D01*
X178055000Y-109736667D01*
X178093095Y-109812857D01*
X178093095Y-109889048D01*
X177712143Y-109965238D01*
X179045476Y-110231905D02*
X179045476Y-109431905D01*
X179045476Y-109812857D02*
X179502619Y-109812857D01*
X179502619Y-110231905D02*
X179502619Y-109431905D01*
X180226428Y-110231905D02*
X180226428Y-109812857D01*
X180188333Y-109736667D01*
X180112143Y-109698571D01*
X179959762Y-109698571D01*
X179883571Y-109736667D01*
X180226428Y-110193810D02*
X180150238Y-110231905D01*
X179959762Y-110231905D01*
X179883571Y-110193810D01*
X179845476Y-110117619D01*
X179845476Y-110041429D01*
X179883571Y-109965238D01*
X179959762Y-109927143D01*
X180150238Y-109927143D01*
X180226428Y-109889048D01*
X180950238Y-110193810D02*
X180874048Y-110231905D01*
X180721667Y-110231905D01*
X180645476Y-110193810D01*
X180607381Y-110155714D01*
X180569286Y-110079524D01*
X180569286Y-109850952D01*
X180607381Y-109774762D01*
X180645476Y-109736667D01*
X180721667Y-109698571D01*
X180874048Y-109698571D01*
X180950238Y-109736667D01*
X181293095Y-110231905D02*
X181293095Y-109431905D01*
X181369286Y-109927143D02*
X181597857Y-110231905D01*
X181597857Y-109698571D02*
X181293095Y-110003333D01*
X182245476Y-110193810D02*
X182169286Y-110231905D01*
X182016905Y-110231905D01*
X181940714Y-110193810D01*
X181902619Y-110117619D01*
X181902619Y-109812857D01*
X181940714Y-109736667D01*
X182016905Y-109698571D01*
X182169286Y-109698571D01*
X182245476Y-109736667D01*
X182283571Y-109812857D01*
X182283571Y-109889048D01*
X181902619Y-109965238D01*
X182626428Y-110231905D02*
X182626428Y-109698571D01*
X182626428Y-109850952D02*
X182664523Y-109774762D01*
X182702619Y-109736667D01*
X182778809Y-109698571D01*
X182855000Y-109698571D01*
X183655000Y-109698571D02*
X183845476Y-110231905D01*
X184035952Y-109698571D01*
X184493095Y-109431905D02*
X184569286Y-109431905D01*
X184645476Y-109470000D01*
X184683571Y-109508095D01*
X184721667Y-109584286D01*
X184759762Y-109736667D01*
X184759762Y-109927143D01*
X184721667Y-110079524D01*
X184683571Y-110155714D01*
X184645476Y-110193810D01*
X184569286Y-110231905D01*
X184493095Y-110231905D01*
X184416905Y-110193810D01*
X184378809Y-110155714D01*
X184340714Y-110079524D01*
X184302619Y-109927143D01*
X184302619Y-109736667D01*
X184340714Y-109584286D01*
X184378809Y-109508095D01*
X184416905Y-109470000D01*
X184493095Y-109431905D01*
X185102619Y-110155714D02*
X185140714Y-110193810D01*
X185102619Y-110231905D01*
X185064524Y-110193810D01*
X185102619Y-110155714D01*
X185102619Y-110231905D01*
X185902619Y-110231905D02*
X185445476Y-110231905D01*
X185674047Y-110231905D02*
X185674047Y-109431905D01*
X185597857Y-109546190D01*
X185521666Y-109622381D01*
X185445476Y-109660476D01*
X171235950Y-111471905D02*
X171235950Y-110671905D01*
X171578807Y-111471905D02*
X171578807Y-111052857D01*
X171540712Y-110976667D01*
X171464522Y-110938571D01*
X171350236Y-110938571D01*
X171274045Y-110976667D01*
X171235950Y-111014762D01*
X171845474Y-110938571D02*
X172150236Y-110938571D01*
X171959760Y-110671905D02*
X171959760Y-111357619D01*
X171997855Y-111433810D01*
X172074046Y-111471905D01*
X172150236Y-111471905D01*
X172302617Y-110938571D02*
X172607379Y-110938571D01*
X172416903Y-110671905D02*
X172416903Y-111357619D01*
X172454998Y-111433810D01*
X172531189Y-111471905D01*
X172607379Y-111471905D01*
X172874046Y-110938571D02*
X172874046Y-111738571D01*
X172874046Y-110976667D02*
X172950237Y-110938571D01*
X173102618Y-110938571D01*
X173178808Y-110976667D01*
X173216903Y-111014762D01*
X173254999Y-111090952D01*
X173254999Y-111319524D01*
X173216903Y-111395714D01*
X173178808Y-111433810D01*
X173102618Y-111471905D01*
X172950237Y-111471905D01*
X172874046Y-111433810D01*
X173597856Y-111395714D02*
X173635951Y-111433810D01*
X173597856Y-111471905D01*
X173559761Y-111433810D01*
X173597856Y-111395714D01*
X173597856Y-111471905D01*
X173597856Y-110976667D02*
X173635951Y-111014762D01*
X173597856Y-111052857D01*
X173559761Y-111014762D01*
X173597856Y-110976667D01*
X173597856Y-111052857D01*
X174550237Y-110633810D02*
X173864522Y-111662381D01*
X175388332Y-110633810D02*
X174702617Y-111662381D01*
X175769284Y-111471905D02*
X175693093Y-111433810D01*
X175654998Y-111357619D01*
X175654998Y-110671905D01*
X176416903Y-111471905D02*
X176416903Y-111052857D01*
X176378808Y-110976667D01*
X176302618Y-110938571D01*
X176150237Y-110938571D01*
X176074046Y-110976667D01*
X176416903Y-111433810D02*
X176340713Y-111471905D01*
X176150237Y-111471905D01*
X176074046Y-111433810D01*
X176035951Y-111357619D01*
X176035951Y-111281429D01*
X176074046Y-111205238D01*
X176150237Y-111167143D01*
X176340713Y-111167143D01*
X176416903Y-111129048D01*
X176797856Y-111471905D02*
X176797856Y-110671905D01*
X176797856Y-110976667D02*
X176874047Y-110938571D01*
X177026428Y-110938571D01*
X177102618Y-110976667D01*
X177140713Y-111014762D01*
X177178809Y-111090952D01*
X177178809Y-111319524D01*
X177140713Y-111395714D01*
X177102618Y-111433810D01*
X177026428Y-111471905D01*
X176874047Y-111471905D01*
X176797856Y-111433810D01*
X177521666Y-111471905D02*
X177521666Y-110671905D01*
X177864523Y-111471905D02*
X177864523Y-111052857D01*
X177826428Y-110976667D01*
X177750238Y-110938571D01*
X177635952Y-110938571D01*
X177559761Y-110976667D01*
X177521666Y-111014762D01*
X178588333Y-111471905D02*
X178588333Y-111052857D01*
X178550238Y-110976667D01*
X178474048Y-110938571D01*
X178321667Y-110938571D01*
X178245476Y-110976667D01*
X178588333Y-111433810D02*
X178512143Y-111471905D01*
X178321667Y-111471905D01*
X178245476Y-111433810D01*
X178207381Y-111357619D01*
X178207381Y-111281429D01*
X178245476Y-111205238D01*
X178321667Y-111167143D01*
X178512143Y-111167143D01*
X178588333Y-111129048D01*
X179312143Y-111433810D02*
X179235953Y-111471905D01*
X179083572Y-111471905D01*
X179007381Y-111433810D01*
X178969286Y-111395714D01*
X178931191Y-111319524D01*
X178931191Y-111090952D01*
X178969286Y-111014762D01*
X179007381Y-110976667D01*
X179083572Y-110938571D01*
X179235953Y-110938571D01*
X179312143Y-110976667D01*
X179655000Y-111471905D02*
X179655000Y-110671905D01*
X179731191Y-111167143D02*
X179959762Y-111471905D01*
X179959762Y-110938571D02*
X179655000Y-111243333D01*
X180607381Y-111433810D02*
X180531191Y-111471905D01*
X180378810Y-111471905D01*
X180302619Y-111433810D01*
X180264524Y-111357619D01*
X180264524Y-111052857D01*
X180302619Y-110976667D01*
X180378810Y-110938571D01*
X180531191Y-110938571D01*
X180607381Y-110976667D01*
X180645476Y-111052857D01*
X180645476Y-111129048D01*
X180264524Y-111205238D01*
X180988333Y-111471905D02*
X180988333Y-110938571D01*
X180988333Y-111090952D02*
X181026428Y-111014762D01*
X181064524Y-110976667D01*
X181140714Y-110938571D01*
X181216905Y-110938571D01*
X181483571Y-111395714D02*
X181521666Y-111433810D01*
X181483571Y-111471905D01*
X181445476Y-111433810D01*
X181483571Y-111395714D01*
X181483571Y-111471905D01*
X181978809Y-111471905D02*
X181902618Y-111433810D01*
X181864523Y-111395714D01*
X181826428Y-111319524D01*
X181826428Y-111090952D01*
X181864523Y-111014762D01*
X181902618Y-110976667D01*
X181978809Y-110938571D01*
X182093095Y-110938571D01*
X182169285Y-110976667D01*
X182207380Y-111014762D01*
X182245476Y-111090952D01*
X182245476Y-111319524D01*
X182207380Y-111395714D01*
X182169285Y-111433810D01*
X182093095Y-111471905D01*
X181978809Y-111471905D01*
X182588333Y-111471905D02*
X182588333Y-110938571D01*
X182588333Y-111090952D02*
X182626428Y-111014762D01*
X182664524Y-110976667D01*
X182740714Y-110938571D01*
X182816905Y-110938571D01*
X183426428Y-110938571D02*
X183426428Y-111586190D01*
X183388333Y-111662381D01*
X183350238Y-111700476D01*
X183274047Y-111738571D01*
X183159762Y-111738571D01*
X183083571Y-111700476D01*
X183426428Y-111433810D02*
X183350238Y-111471905D01*
X183197857Y-111471905D01*
X183121666Y-111433810D01*
X183083571Y-111395714D01*
X183045476Y-111319524D01*
X183045476Y-111090952D01*
X183083571Y-111014762D01*
X183121666Y-110976667D01*
X183197857Y-110938571D01*
X183350238Y-110938571D01*
X183426428Y-110976667D01*
X183807381Y-111395714D02*
X183845476Y-111433810D01*
X183807381Y-111471905D01*
X183769286Y-111433810D01*
X183807381Y-111395714D01*
X183807381Y-111471905D01*
X184188333Y-111471905D02*
X184188333Y-110671905D01*
X184188333Y-110976667D02*
X184264524Y-110938571D01*
X184416905Y-110938571D01*
X184493095Y-110976667D01*
X184531190Y-111014762D01*
X184569286Y-111090952D01*
X184569286Y-111319524D01*
X184531190Y-111395714D01*
X184493095Y-111433810D01*
X184416905Y-111471905D01*
X184264524Y-111471905D01*
X184188333Y-111433810D01*
X184912143Y-111471905D02*
X184912143Y-110938571D01*
X184912143Y-111090952D02*
X184950238Y-111014762D01*
X184988334Y-110976667D01*
X185064524Y-110938571D01*
X185140715Y-110938571D01*
X185978810Y-110633810D02*
X185293095Y-111662381D01*
D11*
X173609048Y-108021429D02*
X174370953Y-108021429D01*
X173990001Y-108402381D02*
X173990001Y-107640476D01*
X173609048Y-105481429D02*
X174370953Y-105481429D01*
X181007143Y-98242381D02*
X181007143Y-97242381D01*
X181340477Y-97956667D01*
X181673810Y-97242381D01*
X181673810Y-98242381D01*
X182102381Y-97956667D02*
X182578572Y-97956667D01*
X182007143Y-98242381D02*
X182340476Y-97242381D01*
X182673810Y-98242381D01*
X182911905Y-97242381D02*
X183578572Y-98242381D01*
X183578572Y-97242381D02*
X182911905Y-98242381D01*
X183864286Y-97242381D02*
X184530953Y-97242381D01*
X184102381Y-98242381D01*
X184864286Y-97337619D02*
X184911905Y-97290000D01*
X185007143Y-97242381D01*
X185245239Y-97242381D01*
X185340477Y-97290000D01*
X185388096Y-97337619D01*
X185435715Y-97432857D01*
X185435715Y-97528095D01*
X185388096Y-97670952D01*
X184816667Y-98242381D01*
X185435715Y-98242381D01*
X186388096Y-98242381D02*
X185816667Y-98242381D01*
X186102381Y-98242381D02*
X186102381Y-97242381D01*
X186007143Y-97385238D01*
X185911905Y-97480476D01*
X185816667Y-97528095D01*
X186864286Y-98242381D02*
X187054762Y-98242381D01*
X187150001Y-98194762D01*
X187197620Y-98147143D01*
X187292858Y-98004286D01*
X187340477Y-97813810D01*
X187340477Y-97432857D01*
X187292858Y-97337619D01*
X187245239Y-97290000D01*
X187150001Y-97242381D01*
X186959524Y-97242381D01*
X186864286Y-97290000D01*
X186816667Y-97337619D01*
X186769048Y-97432857D01*
X186769048Y-97670952D01*
X186816667Y-97766190D01*
X186864286Y-97813810D01*
X186959524Y-97861429D01*
X187150001Y-97861429D01*
X187245239Y-97813810D01*
X187292858Y-97766190D01*
X187340477Y-97670952D01*
D13*
X200415000Y-92845000D02*
X199145000Y-92845000D01*
X200415000Y-100195000D02*
X199145000Y-100195000D01*
X167885000Y-100195000D02*
X169155000Y-100195000D01*
X167885000Y-92845000D02*
X169155000Y-92845000D01*
X200415000Y-92845000D02*
X200415000Y-100195000D01*
X167885000Y-92845000D02*
X167885000Y-100195000D01*
X199145000Y-92845000D02*
X199145000Y-91910000D01*
X170180000Y-106680000D02*
X170180000Y-104140000D01*
X169900000Y-109500000D02*
X169900000Y-107950000D01*
X170180000Y-106680000D02*
X172720000Y-106680000D01*
X173000000Y-107950000D02*
X173000000Y-109500000D01*
X173000000Y-109500000D02*
X169900000Y-109500000D01*
X172720000Y-106680000D02*
X172720000Y-104140000D01*
X172720000Y-104140000D02*
X170180000Y-104140000D01*
X183515000Y-106045000D02*
X178435000Y-106045000D01*
X178435000Y-106045000D02*
X178435000Y-103505000D01*
X178435000Y-103505000D02*
X183515000Y-103505000D01*
X183515000Y-103505000D02*
X183515000Y-106045000D01*
X199145000Y-103005000D02*
X197875000Y-103005000D01*
X199145000Y-110355000D02*
X197875000Y-110355000D01*
X186935000Y-110355000D02*
X188205000Y-110355000D01*
X186935000Y-103005000D02*
X188205000Y-103005000D01*
X199145000Y-103005000D02*
X199145000Y-110355000D01*
X186935000Y-103005000D02*
X186935000Y-110355000D01*
X197875000Y-103005000D02*
X197875000Y-102070000D01*
X183388095Y-94702381D02*
X183388095Y-95511905D01*
X183435714Y-95607143D01*
X183483333Y-95654762D01*
X183578571Y-95702381D01*
X183769048Y-95702381D01*
X183864286Y-95654762D01*
X183911905Y-95607143D01*
X183959524Y-95511905D01*
X183959524Y-94702381D01*
X184959524Y-95702381D02*
X184388095Y-95702381D01*
X184673809Y-95702381D02*
X184673809Y-94702381D01*
X184578571Y-94845238D01*
X184483333Y-94940476D01*
X184388095Y-94988095D01*
X170711905Y-103322381D02*
X170711905Y-102322381D01*
X171092858Y-102322381D01*
X171188096Y-102370000D01*
X171235715Y-102417619D01*
X171283334Y-102512857D01*
X171283334Y-102655714D01*
X171235715Y-102750952D01*
X171188096Y-102798571D01*
X171092858Y-102846190D01*
X170711905Y-102846190D01*
X172235715Y-103322381D02*
X171664286Y-103322381D01*
X171950000Y-103322381D02*
X171950000Y-102322381D01*
X171854762Y-102465238D01*
X171759524Y-102560476D01*
X171664286Y-102608095D01*
X180808334Y-107767381D02*
X180475000Y-107291190D01*
X180236905Y-107767381D02*
X180236905Y-106767381D01*
X180617858Y-106767381D01*
X180713096Y-106815000D01*
X180760715Y-106862619D01*
X180808334Y-106957857D01*
X180808334Y-107100714D01*
X180760715Y-107195952D01*
X180713096Y-107243571D01*
X180617858Y-107291190D01*
X180236905Y-107291190D01*
X181760715Y-107767381D02*
X181189286Y-107767381D01*
X181475000Y-107767381D02*
X181475000Y-106767381D01*
X181379762Y-106910238D01*
X181284524Y-107005476D01*
X181189286Y-107053095D01*
X180379762Y-105227381D02*
X179808333Y-105227381D01*
X180094047Y-105227381D02*
X180094047Y-104227381D01*
X179998809Y-104370238D01*
X179903571Y-104465476D01*
X179808333Y-104513095D01*
X180998809Y-104227381D02*
X181094048Y-104227381D01*
X181189286Y-104275000D01*
X181236905Y-104322619D01*
X181284524Y-104417857D01*
X181332143Y-104608333D01*
X181332143Y-104846429D01*
X181284524Y-105036905D01*
X181236905Y-105132143D01*
X181189286Y-105179762D01*
X181094048Y-105227381D01*
X180998809Y-105227381D01*
X180903571Y-105179762D01*
X180855952Y-105132143D01*
X180808333Y-105036905D01*
X180760714Y-104846429D01*
X180760714Y-104608333D01*
X180808333Y-104417857D01*
X180855952Y-104322619D01*
X180903571Y-104275000D01*
X180998809Y-104227381D01*
X181760714Y-105227381D02*
X181760714Y-104227381D01*
X181855952Y-104846429D02*
X182141667Y-105227381D01*
X182141667Y-104560714D02*
X181760714Y-104941667D01*
X202522381Y-103846190D02*
X201522381Y-103846190D01*
X202427143Y-102798571D02*
X202474762Y-102846190D01*
X202522381Y-102989047D01*
X202522381Y-103084285D01*
X202474762Y-103227143D01*
X202379524Y-103322381D01*
X202284286Y-103370000D01*
X202093810Y-103417619D01*
X201950952Y-103417619D01*
X201760476Y-103370000D01*
X201665238Y-103322381D01*
X201570000Y-103227143D01*
X201522381Y-103084285D01*
X201522381Y-102989047D01*
X201570000Y-102846190D01*
X201617619Y-102798571D01*
X202522381Y-101846190D02*
X202522381Y-102417619D01*
X202522381Y-102131905D02*
X201522381Y-102131905D01*
X201665238Y-102227143D01*
X201760476Y-102322381D01*
X201808095Y-102417619D01*
D10*
G36*
X177750000Y-108535000D02*
X175945000Y-108535000D01*
X175945000Y-108000000D01*
X177165000Y-108000000D01*
X177184453Y-107996061D01*
X177200840Y-107984864D01*
X177211581Y-107968173D01*
X177215000Y-107950000D01*
X177215000Y-107365000D01*
X177750000Y-107365000D01*
X177750000Y-108535000D01*
X177750000Y-108535000D01*
G37*
X177750000Y-108535000D02*
X175945000Y-108535000D01*
X175945000Y-108000000D01*
X177165000Y-108000000D01*
X177184453Y-107996061D01*
X177200840Y-107984864D01*
X177211581Y-107968173D01*
X177215000Y-107950000D01*
X177215000Y-107365000D01*
X177750000Y-107365000D01*
X177750000Y-108535000D01*
G36*
X177115000Y-107265000D02*
X176580000Y-107265000D01*
X176580000Y-106730000D01*
X177115000Y-106730000D01*
X177115000Y-107265000D01*
X177115000Y-107265000D01*
G37*
X177115000Y-107265000D02*
X176580000Y-107265000D01*
X176580000Y-106730000D01*
X177115000Y-106730000D01*
X177115000Y-107265000D01*
M02*
