G04 #@! TF.FileFunction,Legend,Bot*
%FSLAX46Y46*%
G04 Gerber Fmt 4.6, Leading zero omitted, Abs format (unit mm)*
G04 Created by KiCad (PCBNEW 4.0.2+e4-6225~38~ubuntu14.04.1-stable) date Seg 01 Ago 2016 19:58:44 BRT*
%MOMM*%
G01*
G04 APERTURE LIST*
%ADD10C,0.100000*%
%ADD11C,0.150000*%
G04 APERTURE END LIST*
D10*
D11*
X183150000Y-116600000D02*
X181150000Y-116600000D01*
X185150000Y-116600000D02*
X187150000Y-116600000D01*
X169150000Y-86600000D02*
X169150000Y-88600000D01*
X171150000Y-86600000D02*
X169150000Y-86600000D01*
X169150000Y-116600000D02*
X171150000Y-116600000D01*
X169150000Y-114600000D02*
X169150000Y-116600000D01*
X199150000Y-86600000D02*
X197150000Y-86600000D01*
X199150000Y-88600000D02*
X199150000Y-86600000D01*
X199150000Y-116600000D02*
X199150000Y-114600000D01*
X197150000Y-116600000D02*
X199150000Y-116600000D01*
X193150000Y-87850000D02*
X193150000Y-87350000D01*
X193150000Y-87350000D02*
X192400000Y-87600000D01*
X192400000Y-87600000D02*
X193150000Y-87850000D01*
X195900000Y-90600000D02*
X196400000Y-90600000D01*
X196400000Y-90600000D02*
X196150000Y-91350000D01*
X196150000Y-91350000D02*
X195900000Y-90600000D01*
X195150000Y-87600000D02*
X193150000Y-87600000D01*
X196150000Y-88600000D02*
X196150000Y-90600000D01*
X194040000Y-113600000D02*
G75*
G03X194040000Y-113600000I-1000000J0D01*
G01*
X185150000Y-116600000D02*
X185150000Y-115600000D01*
X185150000Y-115600000D02*
X183150000Y-115600000D01*
X183150000Y-115600000D02*
X183150000Y-116600000D01*
X189740540Y-87289640D02*
X189999620Y-87850980D01*
X189999620Y-87850980D02*
X189461140Y-88369140D01*
X189461140Y-88369140D02*
X188940440Y-88099900D01*
X188940440Y-88099900D02*
X188661040Y-88259920D01*
X187220860Y-88239600D02*
X186890660Y-88049100D01*
X186890660Y-88049100D02*
X186451240Y-88379300D01*
X186451240Y-88379300D02*
X185978800Y-87889080D01*
X185978800Y-87889080D02*
X186260740Y-87409020D01*
X186260740Y-87409020D02*
X186070240Y-86939120D01*
X186070240Y-86939120D02*
X185460640Y-86751160D01*
X185460640Y-86751160D02*
X185460640Y-86070440D01*
X185460640Y-86070440D02*
X186019440Y-85930740D01*
X186019440Y-85930740D02*
X186220100Y-85359240D01*
X186220100Y-85359240D02*
X185950860Y-84889340D01*
X185950860Y-84889340D02*
X186420760Y-84378800D01*
X186420760Y-84378800D02*
X186938920Y-84640420D01*
X186938920Y-84640420D02*
X187408820Y-84439760D01*
X187408820Y-84439760D02*
X187579000Y-83898740D01*
X187579000Y-83898740D02*
X188269880Y-83880960D01*
X188269880Y-83880960D02*
X188480700Y-84429600D01*
X188480700Y-84429600D02*
X188899800Y-84599780D01*
X188899800Y-84599780D02*
X189450980Y-84330540D01*
X189450980Y-84330540D02*
X189969140Y-84858860D01*
X189969140Y-84858860D02*
X189720220Y-85399880D01*
X189720220Y-85399880D02*
X189890400Y-85879940D01*
X189890400Y-85879940D02*
X190439040Y-85979000D01*
X190439040Y-85979000D02*
X190449200Y-86680040D01*
X190449200Y-86680040D02*
X189890400Y-86880700D01*
X189890400Y-86880700D02*
X189750700Y-87279480D01*
X187609480Y-87259160D02*
X187309760Y-87109300D01*
X187309760Y-87109300D02*
X187109100Y-86911180D01*
X187109100Y-86911180D02*
X186959240Y-86509860D01*
X186959240Y-86509860D02*
X186959240Y-86111080D01*
X186959240Y-86111080D02*
X187109100Y-85760560D01*
X187109100Y-85760560D02*
X187561220Y-85410040D01*
X187561220Y-85410040D02*
X188010800Y-85359240D01*
X188010800Y-85359240D02*
X188409580Y-85460840D01*
X188409580Y-85460840D02*
X188810900Y-85808820D01*
X188810900Y-85808820D02*
X188960760Y-86260940D01*
X188960760Y-86260940D02*
X188909960Y-86758780D01*
X188909960Y-86758780D02*
X188661040Y-87061040D01*
X188661040Y-87061040D02*
X188310520Y-87259160D01*
X188310520Y-87259160D02*
X188661040Y-88259920D01*
X187609480Y-87259160D02*
X187210700Y-88259920D01*
X184888095Y-96972381D02*
X184888095Y-95972381D01*
X184650000Y-95972381D01*
X184507142Y-96020000D01*
X184411904Y-96115238D01*
X184364285Y-96210476D01*
X184316666Y-96400952D01*
X184316666Y-96543810D01*
X184364285Y-96734286D01*
X184411904Y-96829524D01*
X184507142Y-96924762D01*
X184650000Y-96972381D01*
X184888095Y-96972381D01*
X183364285Y-96972381D02*
X183935714Y-96972381D01*
X183650000Y-96972381D02*
X183650000Y-95972381D01*
X183745238Y-96115238D01*
X183840476Y-96210476D01*
X183935714Y-96258095D01*
X197675476Y-89987381D02*
X198246905Y-89987381D01*
X197961191Y-89987381D02*
X197961191Y-88987381D01*
X198056429Y-89130238D01*
X198151667Y-89225476D01*
X198246905Y-89273095D01*
X196818333Y-88987381D02*
X197008810Y-88987381D01*
X197104048Y-89035000D01*
X197151667Y-89082619D01*
X197246905Y-89225476D01*
X197294524Y-89415952D01*
X197294524Y-89796905D01*
X197246905Y-89892143D01*
X197199286Y-89939762D01*
X197104048Y-89987381D01*
X196913571Y-89987381D01*
X196818333Y-89939762D01*
X196770714Y-89892143D01*
X196723095Y-89796905D01*
X196723095Y-89558810D01*
X196770714Y-89463571D01*
X196818333Y-89415952D01*
X196913571Y-89368333D01*
X197104048Y-89368333D01*
X197199286Y-89415952D01*
X197246905Y-89463571D01*
X197294524Y-89558810D01*
X173545476Y-89987381D02*
X173355000Y-89987381D01*
X173259761Y-89939762D01*
X173212142Y-89892143D01*
X173116904Y-89749286D01*
X173069285Y-89558810D01*
X173069285Y-89177857D01*
X173116904Y-89082619D01*
X173164523Y-89035000D01*
X173259761Y-88987381D01*
X173450238Y-88987381D01*
X173545476Y-89035000D01*
X173593095Y-89082619D01*
X173640714Y-89177857D01*
X173640714Y-89415952D01*
X173593095Y-89511190D01*
X173545476Y-89558810D01*
X173450238Y-89606429D01*
X173259761Y-89606429D01*
X173164523Y-89558810D01*
X173116904Y-89511190D01*
X173069285Y-89415952D01*
X172815238Y-113545952D02*
X172910476Y-113498333D01*
X172958095Y-113450714D01*
X173005714Y-113355476D01*
X173005714Y-113307857D01*
X172958095Y-113212619D01*
X172910476Y-113165000D01*
X172815238Y-113117381D01*
X172624761Y-113117381D01*
X172529523Y-113165000D01*
X172481904Y-113212619D01*
X172434285Y-113307857D01*
X172434285Y-113355476D01*
X172481904Y-113450714D01*
X172529523Y-113498333D01*
X172624761Y-113545952D01*
X172815238Y-113545952D01*
X172910476Y-113593571D01*
X172958095Y-113641190D01*
X173005714Y-113736429D01*
X173005714Y-113926905D01*
X172958095Y-114022143D01*
X172910476Y-114069762D01*
X172815238Y-114117381D01*
X172624761Y-114117381D01*
X172529523Y-114069762D01*
X172481904Y-114022143D01*
X172434285Y-113926905D01*
X172434285Y-113736429D01*
X172481904Y-113641190D01*
X172529523Y-113593571D01*
X172624761Y-113545952D01*
X195294285Y-114117381D02*
X195865714Y-114117381D01*
X195580000Y-114117381D02*
X195580000Y-113117381D01*
X195675238Y-113260238D01*
X195770476Y-113355476D01*
X195865714Y-113403095D01*
D10*
G36*
X179655000Y-86995000D02*
X179658939Y-87014453D01*
X179670136Y-87030840D01*
X179686827Y-87041581D01*
X179705000Y-87045000D01*
X182195000Y-87045000D01*
X182195000Y-88215000D01*
X178485000Y-88215000D01*
X178485000Y-85775000D01*
X179655000Y-85775000D01*
X179655000Y-86995000D01*
X179655000Y-86995000D01*
G37*
X179655000Y-86995000D02*
X179658939Y-87014453D01*
X179670136Y-87030840D01*
X179686827Y-87041581D01*
X179705000Y-87045000D01*
X182195000Y-87045000D01*
X182195000Y-88215000D01*
X178485000Y-88215000D01*
X178485000Y-85775000D01*
X179655000Y-85775000D01*
X179655000Y-86995000D01*
G36*
X180925000Y-85675000D02*
X179755000Y-85675000D01*
X179755000Y-84505000D01*
X180925000Y-84505000D01*
X180925000Y-85675000D01*
X180925000Y-85675000D01*
G37*
X180925000Y-85675000D02*
X179755000Y-85675000D01*
X179755000Y-84505000D01*
X180925000Y-84505000D01*
X180925000Y-85675000D01*
M02*
