M48
INCH,TZ
T1C0.030
T2C0.031
T3C0.032
T4C0.039
T5C0.040
T6C0.047
%
G90
G05
T1
X60500Y-41526
X60500Y-50974
X61500Y-41526
X61500Y-50974
X62500Y-41526
X62500Y-50974
X63500Y-41526
X63500Y-50974
X64500Y-41526
X64500Y-50974
X65500Y-41526
X65500Y-50974
X66500Y-41526
X66500Y-50974
X67500Y-41526
X67500Y-50974
T2
X57500Y-45000
X57500Y-48000
X58500Y-45000
X58500Y-48000
X59500Y-45000
X59500Y-48000
X60500Y-45000
X60500Y-48000
X61500Y-45000
X61500Y-48000
X62500Y-45000
X62500Y-48000
X63000Y-53000
X63500Y-45000
X63500Y-48000
X64000Y-44000
X64000Y-49000
X64500Y-45000
X64500Y-48000
X65000Y-49000
X65000Y-52500
X65500Y-45000
X65500Y-48000
X66000Y-42500
X66000Y-48750
X66000Y-52500
X66500Y-45000
X66500Y-48000
X67500Y-45000
X67500Y-48000
X68500Y-45000
X68500Y-48000
X69000Y-53000
X69500Y-42500
X69500Y-45000
X69500Y-48000
X70000Y-42500
X70000Y-49500
X70500Y-45000
X70500Y-48000
X70500Y-49500
X71484Y-49500
T3
X63000Y-53984
X69000Y-53984
T4
X57750Y-53500
X60750Y-53500
T5
X71000Y-42500
X71000Y-43500
T6
X65039Y-53500
X66961Y-53500
T0
M30
