G04 #@! TF.FileFunction,Legend,Bot*
%FSLAX46Y46*%
G04 Gerber Fmt 4.6, Leading zero omitted, Abs format (unit mm)*
G04 Created by KiCad (PCBNEW 4.0.2-stable) date 2016-09-07 01:54:00*
%MOMM*%
G01*
G04 APERTURE LIST*
%ADD10C,0.100000*%
%ADD11C,0.300000*%
%ADD12C,0.150000*%
G04 APERTURE END LIST*
D10*
D11*
X182352143Y-119443572D02*
X182352143Y-120586429D01*
X181546428Y-114407143D02*
X180403571Y-114407143D01*
X180975000Y-114978571D02*
X180975000Y-113835714D01*
D12*
X171553095Y-112212381D02*
X171553095Y-111212381D01*
X171315000Y-111212381D01*
X171172142Y-111260000D01*
X171076904Y-111355238D01*
X171029285Y-111450476D01*
X170981666Y-111640952D01*
X170981666Y-111783810D01*
X171029285Y-111974286D01*
X171076904Y-112069524D01*
X171172142Y-112164762D01*
X171315000Y-112212381D01*
X171553095Y-112212381D01*
X170029285Y-112212381D02*
X170600714Y-112212381D01*
X170315000Y-112212381D02*
X170315000Y-111212381D01*
X170410238Y-111355238D01*
X170505476Y-111450476D01*
X170600714Y-111498095D01*
X174180476Y-114117381D02*
X173990000Y-114117381D01*
X173894761Y-114069762D01*
X173847142Y-114022143D01*
X173751904Y-113879286D01*
X173704285Y-113688810D01*
X173704285Y-113307857D01*
X173751904Y-113212619D01*
X173799523Y-113165000D01*
X173894761Y-113117381D01*
X174085238Y-113117381D01*
X174180476Y-113165000D01*
X174228095Y-113212619D01*
X174275714Y-113307857D01*
X174275714Y-113545952D01*
X174228095Y-113641190D01*
X174180476Y-113688810D01*
X174085238Y-113736429D01*
X173894761Y-113736429D01*
X173799523Y-113688810D01*
X173751904Y-113641190D01*
X173704285Y-113545952D01*
X174085238Y-137675952D02*
X174180476Y-137628333D01*
X174228095Y-137580714D01*
X174275714Y-137485476D01*
X174275714Y-137437857D01*
X174228095Y-137342619D01*
X174180476Y-137295000D01*
X174085238Y-137247381D01*
X173894761Y-137247381D01*
X173799523Y-137295000D01*
X173751904Y-137342619D01*
X173704285Y-137437857D01*
X173704285Y-137485476D01*
X173751904Y-137580714D01*
X173799523Y-137628333D01*
X173894761Y-137675952D01*
X174085238Y-137675952D01*
X174180476Y-137723571D01*
X174228095Y-137771190D01*
X174275714Y-137866429D01*
X174275714Y-138056905D01*
X174228095Y-138152143D01*
X174180476Y-138199762D01*
X174085238Y-138247381D01*
X173894761Y-138247381D01*
X173799523Y-138199762D01*
X173751904Y-138152143D01*
X173704285Y-138056905D01*
X173704285Y-137866429D01*
X173751904Y-137771190D01*
X173799523Y-137723571D01*
X173894761Y-137675952D01*
X152114285Y-138882381D02*
X152685714Y-138882381D01*
X152400000Y-138882381D02*
X152400000Y-137882381D01*
X152495238Y-138025238D01*
X152590476Y-138120476D01*
X152685714Y-138168095D01*
X151471190Y-125547381D02*
X151471190Y-124547381D01*
X150423571Y-125452143D02*
X150471190Y-125499762D01*
X150614047Y-125547381D01*
X150709285Y-125547381D01*
X150852143Y-125499762D01*
X150947381Y-125404524D01*
X150995000Y-125309286D01*
X151042619Y-125118810D01*
X151042619Y-124975952D01*
X150995000Y-124785476D01*
X150947381Y-124690238D01*
X150852143Y-124595000D01*
X150709285Y-124547381D01*
X150614047Y-124547381D01*
X150471190Y-124595000D01*
X150423571Y-124642619D01*
X149471190Y-125547381D02*
X150042619Y-125547381D01*
X149756905Y-125547381D02*
X149756905Y-124547381D01*
X149852143Y-124690238D01*
X149947381Y-124785476D01*
X150042619Y-124833095D01*
X179109048Y-125896667D02*
X178632857Y-125896667D01*
X179204286Y-126182381D02*
X178870953Y-125182381D01*
X178537619Y-126182381D01*
X178347143Y-125182381D02*
X177775714Y-125182381D01*
X178061429Y-126182381D02*
X178061429Y-125182381D01*
X177442381Y-126182381D02*
X177442381Y-125182381D01*
X177109047Y-125896667D01*
X176775714Y-125182381D01*
X176775714Y-126182381D01*
X176299524Y-125658571D02*
X175966190Y-125658571D01*
X175823333Y-126182381D02*
X176299524Y-126182381D01*
X176299524Y-125182381D01*
X175823333Y-125182381D01*
X174870952Y-125230000D02*
X174966190Y-125182381D01*
X175109047Y-125182381D01*
X175251905Y-125230000D01*
X175347143Y-125325238D01*
X175394762Y-125420476D01*
X175442381Y-125610952D01*
X175442381Y-125753810D01*
X175394762Y-125944286D01*
X175347143Y-126039524D01*
X175251905Y-126134762D01*
X175109047Y-126182381D01*
X175013809Y-126182381D01*
X174870952Y-126134762D01*
X174823333Y-126087143D01*
X174823333Y-125753810D01*
X175013809Y-125753810D01*
X174442381Y-125896667D02*
X173966190Y-125896667D01*
X174537619Y-126182381D02*
X174204286Y-125182381D01*
X173870952Y-126182381D01*
X173632857Y-125182381D02*
X173013809Y-125182381D01*
X173347143Y-125563333D01*
X173204285Y-125563333D01*
X173109047Y-125610952D01*
X173061428Y-125658571D01*
X173013809Y-125753810D01*
X173013809Y-125991905D01*
X173061428Y-126087143D01*
X173109047Y-126134762D01*
X173204285Y-126182381D01*
X173490000Y-126182381D01*
X173585238Y-126134762D01*
X173632857Y-126087143D01*
X172632857Y-125277619D02*
X172585238Y-125230000D01*
X172490000Y-125182381D01*
X172251904Y-125182381D01*
X172156666Y-125230000D01*
X172109047Y-125277619D01*
X172061428Y-125372857D01*
X172061428Y-125468095D01*
X172109047Y-125610952D01*
X172680476Y-126182381D01*
X172061428Y-126182381D01*
X171490000Y-125610952D02*
X171585238Y-125563333D01*
X171632857Y-125515714D01*
X171680476Y-125420476D01*
X171680476Y-125372857D01*
X171632857Y-125277619D01*
X171585238Y-125230000D01*
X171490000Y-125182381D01*
X171299523Y-125182381D01*
X171204285Y-125230000D01*
X171156666Y-125277619D01*
X171109047Y-125372857D01*
X171109047Y-125420476D01*
X171156666Y-125515714D01*
X171204285Y-125563333D01*
X171299523Y-125610952D01*
X171490000Y-125610952D01*
X171585238Y-125658571D01*
X171632857Y-125706190D01*
X171680476Y-125801429D01*
X171680476Y-125991905D01*
X171632857Y-126087143D01*
X171585238Y-126134762D01*
X171490000Y-126182381D01*
X171299523Y-126182381D01*
X171204285Y-126134762D01*
X171156666Y-126087143D01*
X171109047Y-125991905D01*
X171109047Y-125801429D01*
X171156666Y-125706190D01*
X171204285Y-125658571D01*
X171299523Y-125610952D01*
X170680476Y-125801429D02*
X169918571Y-125801429D01*
X169442381Y-126182381D02*
X169442381Y-125182381D01*
X169061428Y-125182381D01*
X168966190Y-125230000D01*
X168918571Y-125277619D01*
X168870952Y-125372857D01*
X168870952Y-125515714D01*
X168918571Y-125610952D01*
X168966190Y-125658571D01*
X169061428Y-125706190D01*
X169442381Y-125706190D01*
X160186666Y-133167381D02*
X160520000Y-132691190D01*
X160758095Y-133167381D02*
X160758095Y-132167381D01*
X160377142Y-132167381D01*
X160281904Y-132215000D01*
X160234285Y-132262619D01*
X160186666Y-132357857D01*
X160186666Y-132500714D01*
X160234285Y-132595952D01*
X160281904Y-132643571D01*
X160377142Y-132691190D01*
X160758095Y-132691190D01*
X159234285Y-133167381D02*
X159805714Y-133167381D01*
X159520000Y-133167381D02*
X159520000Y-132167381D01*
X159615238Y-132310238D01*
X159710476Y-132405476D01*
X159805714Y-132453095D01*
X151725238Y-136342381D02*
X152296667Y-136342381D01*
X152010953Y-136342381D02*
X152010953Y-135342381D01*
X152106191Y-135485238D01*
X152201429Y-135580476D01*
X152296667Y-135628095D01*
X151106191Y-135342381D02*
X151010952Y-135342381D01*
X150915714Y-135390000D01*
X150868095Y-135437619D01*
X150820476Y-135532857D01*
X150772857Y-135723333D01*
X150772857Y-135961429D01*
X150820476Y-136151905D01*
X150868095Y-136247143D01*
X150915714Y-136294762D01*
X151010952Y-136342381D01*
X151106191Y-136342381D01*
X151201429Y-136294762D01*
X151249048Y-136247143D01*
X151296667Y-136151905D01*
X151344286Y-135961429D01*
X151344286Y-135723333D01*
X151296667Y-135532857D01*
X151249048Y-135437619D01*
X151201429Y-135390000D01*
X151106191Y-135342381D01*
X150344286Y-136342381D02*
X150344286Y-135342381D01*
X150249048Y-135961429D02*
X149963333Y-136342381D01*
X149963333Y-135675714D02*
X150344286Y-136056667D01*
X169608333Y-108989762D02*
X169465476Y-109037381D01*
X169227380Y-109037381D01*
X169132142Y-108989762D01*
X169084523Y-108942143D01*
X169036904Y-108846905D01*
X169036904Y-108751667D01*
X169084523Y-108656429D01*
X169132142Y-108608810D01*
X169227380Y-108561190D01*
X169417857Y-108513571D01*
X169513095Y-108465952D01*
X169560714Y-108418333D01*
X169608333Y-108323095D01*
X169608333Y-108227857D01*
X169560714Y-108132619D01*
X169513095Y-108085000D01*
X169417857Y-108037381D01*
X169179761Y-108037381D01*
X169036904Y-108085000D01*
X168703571Y-108037381D02*
X168465476Y-109037381D01*
X168274999Y-108323095D01*
X168084523Y-109037381D01*
X167846428Y-108037381D01*
X166941666Y-109037381D02*
X167513095Y-109037381D01*
X167227381Y-109037381D02*
X167227381Y-108037381D01*
X167322619Y-108180238D01*
X167417857Y-108275476D01*
X167513095Y-108323095D01*
X160083333Y-108989762D02*
X159940476Y-109037381D01*
X159702380Y-109037381D01*
X159607142Y-108989762D01*
X159559523Y-108942143D01*
X159511904Y-108846905D01*
X159511904Y-108751667D01*
X159559523Y-108656429D01*
X159607142Y-108608810D01*
X159702380Y-108561190D01*
X159892857Y-108513571D01*
X159988095Y-108465952D01*
X160035714Y-108418333D01*
X160083333Y-108323095D01*
X160083333Y-108227857D01*
X160035714Y-108132619D01*
X159988095Y-108085000D01*
X159892857Y-108037381D01*
X159654761Y-108037381D01*
X159511904Y-108085000D01*
X159178571Y-108037381D02*
X158940476Y-109037381D01*
X158749999Y-108323095D01*
X158559523Y-109037381D01*
X158321428Y-108037381D01*
X157988095Y-108132619D02*
X157940476Y-108085000D01*
X157845238Y-108037381D01*
X157607142Y-108037381D01*
X157511904Y-108085000D01*
X157464285Y-108132619D01*
X157416666Y-108227857D01*
X157416666Y-108323095D01*
X157464285Y-108465952D01*
X158035714Y-109037381D01*
X157416666Y-109037381D01*
X179768333Y-108989762D02*
X179625476Y-109037381D01*
X179387380Y-109037381D01*
X179292142Y-108989762D01*
X179244523Y-108942143D01*
X179196904Y-108846905D01*
X179196904Y-108751667D01*
X179244523Y-108656429D01*
X179292142Y-108608810D01*
X179387380Y-108561190D01*
X179577857Y-108513571D01*
X179673095Y-108465952D01*
X179720714Y-108418333D01*
X179768333Y-108323095D01*
X179768333Y-108227857D01*
X179720714Y-108132619D01*
X179673095Y-108085000D01*
X179577857Y-108037381D01*
X179339761Y-108037381D01*
X179196904Y-108085000D01*
X178863571Y-108037381D02*
X178625476Y-109037381D01*
X178434999Y-108323095D01*
X178244523Y-109037381D01*
X178006428Y-108037381D01*
X177720714Y-108037381D02*
X177101666Y-108037381D01*
X177435000Y-108418333D01*
X177292142Y-108418333D01*
X177196904Y-108465952D01*
X177149285Y-108513571D01*
X177101666Y-108608810D01*
X177101666Y-108846905D01*
X177149285Y-108942143D01*
X177196904Y-108989762D01*
X177292142Y-109037381D01*
X177577857Y-109037381D01*
X177673095Y-108989762D01*
X177720714Y-108942143D01*
X150558333Y-108989762D02*
X150415476Y-109037381D01*
X150177380Y-109037381D01*
X150082142Y-108989762D01*
X150034523Y-108942143D01*
X149986904Y-108846905D01*
X149986904Y-108751667D01*
X150034523Y-108656429D01*
X150082142Y-108608810D01*
X150177380Y-108561190D01*
X150367857Y-108513571D01*
X150463095Y-108465952D01*
X150510714Y-108418333D01*
X150558333Y-108323095D01*
X150558333Y-108227857D01*
X150510714Y-108132619D01*
X150463095Y-108085000D01*
X150367857Y-108037381D01*
X150129761Y-108037381D01*
X149986904Y-108085000D01*
X149653571Y-108037381D02*
X149415476Y-109037381D01*
X149224999Y-108323095D01*
X149034523Y-109037381D01*
X148796428Y-108037381D01*
X147986904Y-108370714D02*
X147986904Y-109037381D01*
X148225000Y-107989762D02*
X148463095Y-108704048D01*
X147844047Y-108704048D01*
M02*
