M48
INCH,TZ
T1C0.030
T2C0.031
T3C0.039
T4C0.040
%
G90
G05
T1
X69000Y-35276
X69000Y-44724
X69750Y-43000
X70000Y-35276
X70000Y-44724
X71000Y-35276
X71000Y-44724
X72000Y-35276
X72000Y-44724
X72750Y-43000
X73000Y-35276
X73000Y-44724
X74000Y-35276
X74000Y-44724
X75000Y-35276
X75000Y-44724
X76000Y-35276
X76000Y-44724
T2
X67000Y-36500
X67000Y-39500
X68000Y-36500
X68000Y-39500
X69000Y-36500
X69000Y-39500
X70000Y-36500
X70000Y-39500
X71000Y-36500
X71000Y-39500
X72000Y-36500
X72000Y-39500
X73000Y-36500
X73000Y-39500
X74000Y-36500
X74000Y-39500
X74500Y-40500
X74500Y-43500
X75000Y-36500
X75000Y-39500
X75500Y-40500
X75500Y-43500
X76000Y-36500
X76000Y-39500
X76500Y-40500
X76500Y-43500
X77000Y-36500
X77000Y-39500
X77500Y-40500
X77500Y-43500
X78000Y-36500
X78000Y-39500
T3
X69750Y-41250
X72750Y-41250
T4
X67500Y-41500
X67500Y-42500
T0
M30
