G04 #@! TF.FileFunction,Copper,L2,Bot,Signal*
%FSLAX46Y46*%
G04 Gerber Fmt 4.6, Leading zero omitted, Abs format (unit mm)*
G04 Created by KiCad (PCBNEW 4.0.2+e4-6225~38~ubuntu14.04.1-stable) date Seg 01 Ago 2016 19:20:02 BRT*
%MOMM*%
G01*
G04 APERTURE LIST*
%ADD10C,0.100000*%
%ADD11O,1.600000X1.600000*%
%ADD12C,1.524000*%
%ADD13R,2.032000X2.032000*%
%ADD14O,2.032000X2.032000*%
%ADD15C,1.998980*%
%ADD16C,0.250000*%
%ADD17C,0.350000*%
G04 APERTURE END LIST*
D10*
D11*
X198120000Y-92710000D03*
X195580000Y-92710000D03*
X193040000Y-92710000D03*
X190500000Y-92710000D03*
X187960000Y-92710000D03*
X185420000Y-92710000D03*
X182880000Y-92710000D03*
X180340000Y-92710000D03*
X177800000Y-92710000D03*
X175260000Y-92710000D03*
X172720000Y-92710000D03*
X170180000Y-92710000D03*
X170180000Y-100330000D03*
X172720000Y-100330000D03*
X175260000Y-100330000D03*
X177800000Y-100330000D03*
X180340000Y-100330000D03*
X182880000Y-100330000D03*
X185420000Y-100330000D03*
X187960000Y-100330000D03*
X190500000Y-100330000D03*
X193040000Y-100330000D03*
X195580000Y-100330000D03*
X198120000Y-100330000D03*
D12*
X193040000Y-113600000D03*
X190500000Y-113600000D03*
X187960000Y-113600000D03*
X185420000Y-113600000D03*
X182880000Y-113600000D03*
X180340000Y-113600000D03*
X177800000Y-113600000D03*
X175260000Y-113600000D03*
X175260000Y-89600000D03*
X177800000Y-89600000D03*
X180340000Y-89600000D03*
X182880000Y-89600000D03*
X185420000Y-89600000D03*
X187960000Y-89600000D03*
X190500000Y-89600000D03*
X193040000Y-89600000D03*
D13*
X171450000Y-107950000D03*
D14*
X171450000Y-105410000D03*
D15*
X184785000Y-104775000D03*
X177165000Y-104775000D03*
D11*
X196850000Y-102870000D03*
X194310000Y-102870000D03*
X191770000Y-102870000D03*
X189230000Y-102870000D03*
X189230000Y-110490000D03*
X191770000Y-110490000D03*
X194310000Y-110490000D03*
X196850000Y-110490000D03*
D16*
X196850000Y-100965000D02*
X195580000Y-102235000D01*
X195580000Y-103505000D02*
X193040000Y-106045000D01*
X195580000Y-102235000D02*
X195580000Y-103505000D01*
X189230000Y-113030000D02*
X187325000Y-111125000D01*
X191770000Y-114935000D02*
X189865000Y-114935000D01*
X189865000Y-114935000D02*
X189230000Y-114300000D01*
X193040000Y-113665000D02*
X191770000Y-114935000D01*
X187325000Y-108585000D02*
X189865000Y-106045000D01*
X189865000Y-106045000D02*
X193040000Y-106045000D01*
X187325000Y-111125000D02*
X187325000Y-108585000D01*
X189230000Y-114300000D02*
X189230000Y-113030000D01*
X193040000Y-94615000D02*
X193040000Y-92710000D01*
X196850000Y-98425000D02*
X193040000Y-94615000D01*
X196850000Y-100965000D02*
X196850000Y-98425000D01*
X193040000Y-113600000D02*
X193040000Y-113665000D01*
X193040000Y-113600000D02*
X192975000Y-113600000D01*
X187960000Y-92710000D02*
X187960000Y-92075000D01*
X187960000Y-92075000D02*
X188595000Y-91440000D01*
X191135000Y-112395000D02*
X190500000Y-113030000D01*
X198755000Y-112395000D02*
X191135000Y-112395000D01*
X200025000Y-111125000D02*
X198755000Y-112395000D01*
X200025000Y-92075000D02*
X200025000Y-111125000D01*
X199390000Y-91440000D02*
X200025000Y-92075000D01*
X197485000Y-91440000D02*
X199390000Y-91440000D01*
X196850000Y-92075000D02*
X197485000Y-91440000D01*
X196850000Y-93345000D02*
X196850000Y-92075000D01*
X196215000Y-93980000D02*
X196850000Y-93345000D01*
X194945000Y-93980000D02*
X196215000Y-93980000D01*
X194310000Y-93345000D02*
X194945000Y-93980000D01*
X194310000Y-92075000D02*
X194310000Y-93345000D01*
X193675000Y-91440000D02*
X194310000Y-92075000D01*
X188595000Y-91440000D02*
X193675000Y-91440000D01*
X190500000Y-113030000D02*
X190500000Y-113600000D01*
X190500000Y-114300000D02*
X190500000Y-113600000D01*
X190500000Y-113600000D02*
X190435000Y-113600000D01*
X187960000Y-113600000D02*
X187960000Y-114300000D01*
X187960000Y-114300000D02*
X187325000Y-114935000D01*
X173990000Y-101600000D02*
X172720000Y-100330000D01*
X173990000Y-105410000D02*
X173990000Y-101600000D01*
X176530000Y-107950000D02*
X173990000Y-105410000D01*
X179705000Y-107950000D02*
X176530000Y-107950000D01*
X184150000Y-112395000D02*
X179705000Y-107950000D01*
X184150000Y-114300000D02*
X184150000Y-112395000D01*
X184785000Y-114935000D02*
X184150000Y-114300000D01*
X187325000Y-114935000D02*
X184785000Y-114935000D01*
X187960000Y-113600000D02*
X187960000Y-113665000D01*
X185420000Y-113600000D02*
X185420000Y-112395000D01*
X185420000Y-112395000D02*
X180340000Y-107315000D01*
X180340000Y-107315000D02*
X177165000Y-107315000D01*
X177165000Y-107315000D02*
X175260000Y-105410000D01*
X175260000Y-105410000D02*
X175260000Y-102870000D01*
X175260000Y-102870000D02*
X177800000Y-100330000D01*
X185420000Y-113600000D02*
X185355000Y-113600000D01*
X180340000Y-113600000D02*
X180275000Y-113600000D01*
X177800000Y-113600000D02*
X177735000Y-113600000D01*
X175260000Y-89600000D02*
X175260000Y-88265000D01*
X195580000Y-88265000D02*
X195580000Y-92710000D01*
X194945000Y-87630000D02*
X195580000Y-88265000D01*
X175895000Y-87630000D02*
X194945000Y-87630000D01*
X175260000Y-88265000D02*
X175895000Y-87630000D01*
X185420000Y-97790000D02*
X186690000Y-97790000D01*
X187960000Y-99060000D02*
X187960000Y-100330000D01*
X186690000Y-97790000D02*
X187960000Y-99060000D01*
X177800000Y-89600000D02*
X177865000Y-89600000D01*
X177865000Y-89600000D02*
X179070000Y-90805000D01*
X179070000Y-90805000D02*
X179070000Y-93345000D01*
X179070000Y-93345000D02*
X183515000Y-97790000D01*
X183515000Y-97790000D02*
X185420000Y-97790000D01*
X180340000Y-89600000D02*
X180405000Y-89600000D01*
X180405000Y-89600000D02*
X181610000Y-90805000D01*
X181610000Y-90805000D02*
X181610000Y-93980000D01*
X181610000Y-93980000D02*
X184785000Y-97155000D01*
X184785000Y-97155000D02*
X187325000Y-97155000D01*
X187325000Y-97155000D02*
X190500000Y-100330000D01*
X182880000Y-89600000D02*
X182880000Y-92710000D01*
X182880000Y-92710000D02*
X182880000Y-92140000D01*
X185420000Y-89600000D02*
X185485000Y-89600000D01*
X185485000Y-89600000D02*
X186690000Y-90805000D01*
X186690000Y-90805000D02*
X186690000Y-93980000D01*
X186690000Y-93980000D02*
X193040000Y-100330000D01*
X187960000Y-89600000D02*
X187960000Y-89535000D01*
X187960000Y-89535000D02*
X186690000Y-88265000D01*
X174625000Y-90805000D02*
X172720000Y-92710000D01*
X175895000Y-90805000D02*
X174625000Y-90805000D01*
X176530000Y-90170000D02*
X175895000Y-90805000D01*
X176530000Y-88900000D02*
X176530000Y-90170000D01*
X177165000Y-88265000D02*
X176530000Y-88900000D01*
X186690000Y-88265000D02*
X177165000Y-88265000D01*
X185420000Y-98425000D02*
X186055000Y-98425000D01*
X186690000Y-99060000D02*
X186690000Y-99695000D01*
X186055000Y-98425000D02*
X186690000Y-99060000D01*
X189865000Y-104775000D02*
X189230000Y-104775000D01*
X175895000Y-98425000D02*
X170180000Y-92710000D01*
X185420000Y-98425000D02*
X175895000Y-98425000D01*
X186690000Y-102235000D02*
X186690000Y-99695000D01*
X189230000Y-104775000D02*
X186690000Y-102235000D01*
X194310000Y-102870000D02*
X192405000Y-104775000D01*
X192405000Y-104775000D02*
X189865000Y-104775000D01*
D17*
X189230000Y-102870000D02*
X190500000Y-101600000D01*
X190500000Y-101600000D02*
X193675000Y-101600000D01*
X193675000Y-101600000D02*
X194310000Y-100965000D01*
X194310000Y-100965000D02*
X194310000Y-98425000D01*
X194310000Y-98425000D02*
X190500000Y-94615000D01*
X190500000Y-94615000D02*
X190500000Y-92710000D01*
D16*
X189230000Y-102870000D02*
X189230000Y-102235000D01*
X198120000Y-92710000D02*
X199390000Y-93980000D01*
X199390000Y-104775000D02*
X196850000Y-107315000D01*
X199390000Y-93980000D02*
X199390000Y-104775000D01*
X189230000Y-110490000D02*
X189230000Y-109220000D01*
X191135000Y-107315000D02*
X196850000Y-107315000D01*
X189230000Y-109220000D02*
X191135000Y-107315000D01*
D17*
X184785000Y-104775000D02*
X185420000Y-104140000D01*
X185420000Y-104140000D02*
X185420000Y-100330000D01*
D16*
X184785000Y-104775000D02*
X185420000Y-104140000D01*
D17*
X177165000Y-104775000D02*
X180340000Y-104775000D01*
X182880000Y-102235000D02*
X182880000Y-100330000D01*
X180340000Y-104775000D02*
X182880000Y-102235000D01*
M02*
