G04 #@! TF.FileFunction,Legend,Bot*
%FSLAX46Y46*%
G04 Gerber Fmt 4.6, Leading zero omitted, Abs format (unit mm)*
G04 Created by KiCad (PCBNEW 4.0.2+e4-6225~38~ubuntu14.04.1-stable) date Qua 03 Ago 2016 18:24:10 BRT*
%MOMM*%
G01*
G04 APERTURE LIST*
%ADD10C,0.100000*%
%ADD11C,0.300000*%
%ADD12C,0.150000*%
G04 APERTURE END LIST*
D10*
D11*
X181717143Y-112458572D02*
X181717143Y-113601429D01*
X181546428Y-104882143D02*
X180403571Y-104882143D01*
X180975000Y-105453571D02*
X180975000Y-104310714D01*
D12*
X176696666Y-138787143D02*
X176744285Y-138834762D01*
X176887142Y-138882381D01*
X176982380Y-138882381D01*
X177125238Y-138834762D01*
X177220476Y-138739524D01*
X177268095Y-138644286D01*
X177315714Y-138453810D01*
X177315714Y-138310952D01*
X177268095Y-138120476D01*
X177220476Y-138025238D01*
X177125238Y-137930000D01*
X176982380Y-137882381D01*
X176887142Y-137882381D01*
X176744285Y-137930000D01*
X176696666Y-137977619D01*
X175744285Y-138882381D02*
X176315714Y-138882381D01*
X176030000Y-138882381D02*
X176030000Y-137882381D01*
X176125238Y-138025238D01*
X176220476Y-138120476D01*
X176315714Y-138168095D01*
X178617619Y-134247143D02*
X178570000Y-134294762D01*
X178522381Y-134390000D01*
X178522381Y-134628096D01*
X178570000Y-134723334D01*
X178617619Y-134770953D01*
X178712857Y-134818572D01*
X178808095Y-134818572D01*
X178950952Y-134770953D01*
X179522381Y-134199524D01*
X179522381Y-134818572D01*
X178617619Y-135199524D02*
X178570000Y-135247143D01*
X178522381Y-135342381D01*
X178522381Y-135580477D01*
X178570000Y-135675715D01*
X178617619Y-135723334D01*
X178712857Y-135770953D01*
X178808095Y-135770953D01*
X178950952Y-135723334D01*
X179522381Y-135151905D01*
X179522381Y-135770953D01*
X178855714Y-136199524D02*
X179855714Y-136199524D01*
X178903333Y-136199524D02*
X178855714Y-136294762D01*
X178855714Y-136485239D01*
X178903333Y-136580477D01*
X178950952Y-136628096D01*
X179046190Y-136675715D01*
X179331905Y-136675715D01*
X179427143Y-136628096D01*
X179474762Y-136580477D01*
X179522381Y-136485239D01*
X179522381Y-136294762D01*
X179474762Y-136199524D01*
X178998571Y-137437620D02*
X178998571Y-137104286D01*
X179522381Y-137104286D02*
X178522381Y-137104286D01*
X178522381Y-137580477D01*
X180506666Y-127992143D02*
X180554285Y-128039762D01*
X180697142Y-128087381D01*
X180792380Y-128087381D01*
X180935238Y-128039762D01*
X181030476Y-127944524D01*
X181078095Y-127849286D01*
X181125714Y-127658810D01*
X181125714Y-127515952D01*
X181078095Y-127325476D01*
X181030476Y-127230238D01*
X180935238Y-127135000D01*
X180792380Y-127087381D01*
X180697142Y-127087381D01*
X180554285Y-127135000D01*
X180506666Y-127182619D01*
X180125714Y-127182619D02*
X180078095Y-127135000D01*
X179982857Y-127087381D01*
X179744761Y-127087381D01*
X179649523Y-127135000D01*
X179601904Y-127182619D01*
X179554285Y-127277857D01*
X179554285Y-127373095D01*
X179601904Y-127515952D01*
X180173333Y-128087381D01*
X179554285Y-128087381D01*
X181867619Y-129982381D02*
X182439048Y-129982381D01*
X182153334Y-129982381D02*
X182153334Y-128982381D01*
X182248572Y-129125238D01*
X182343810Y-129220476D01*
X182439048Y-129268095D01*
X181248572Y-128982381D02*
X181153333Y-128982381D01*
X181058095Y-129030000D01*
X181010476Y-129077619D01*
X180962857Y-129172857D01*
X180915238Y-129363333D01*
X180915238Y-129601429D01*
X180962857Y-129791905D01*
X181010476Y-129887143D01*
X181058095Y-129934762D01*
X181153333Y-129982381D01*
X181248572Y-129982381D01*
X181343810Y-129934762D01*
X181391429Y-129887143D01*
X181439048Y-129791905D01*
X181486667Y-129601429D01*
X181486667Y-129363333D01*
X181439048Y-129172857D01*
X181391429Y-129077619D01*
X181343810Y-129030000D01*
X181248572Y-128982381D01*
X180296191Y-128982381D02*
X180200952Y-128982381D01*
X180105714Y-129030000D01*
X180058095Y-129077619D01*
X180010476Y-129172857D01*
X179962857Y-129363333D01*
X179962857Y-129601429D01*
X180010476Y-129791905D01*
X180058095Y-129887143D01*
X180105714Y-129934762D01*
X180200952Y-129982381D01*
X180296191Y-129982381D01*
X180391429Y-129934762D01*
X180439048Y-129887143D01*
X180486667Y-129791905D01*
X180534286Y-129601429D01*
X180534286Y-129363333D01*
X180486667Y-129172857D01*
X180439048Y-129077619D01*
X180391429Y-129030000D01*
X180296191Y-128982381D01*
X179105714Y-129315714D02*
X179105714Y-129982381D01*
X179534286Y-129315714D02*
X179534286Y-129839524D01*
X179486667Y-129934762D01*
X179391429Y-129982381D01*
X179248571Y-129982381D01*
X179153333Y-129934762D01*
X179105714Y-129887143D01*
X178296190Y-129458571D02*
X178629524Y-129458571D01*
X178629524Y-129982381D02*
X178629524Y-128982381D01*
X178153333Y-128982381D01*
X158916666Y-138787143D02*
X158964285Y-138834762D01*
X159107142Y-138882381D01*
X159202380Y-138882381D01*
X159345238Y-138834762D01*
X159440476Y-138739524D01*
X159488095Y-138644286D01*
X159535714Y-138453810D01*
X159535714Y-138310952D01*
X159488095Y-138120476D01*
X159440476Y-138025238D01*
X159345238Y-137930000D01*
X159202380Y-137882381D01*
X159107142Y-137882381D01*
X158964285Y-137930000D01*
X158916666Y-137977619D01*
X158583333Y-137882381D02*
X157964285Y-137882381D01*
X158297619Y-138263333D01*
X158154761Y-138263333D01*
X158059523Y-138310952D01*
X158011904Y-138358571D01*
X157964285Y-138453810D01*
X157964285Y-138691905D01*
X158011904Y-138787143D01*
X158059523Y-138834762D01*
X158154761Y-138882381D01*
X158440476Y-138882381D01*
X158535714Y-138834762D01*
X158583333Y-138787143D01*
X157662619Y-132977143D02*
X157615000Y-133024762D01*
X157567381Y-133120000D01*
X157567381Y-133358096D01*
X157615000Y-133453334D01*
X157662619Y-133500953D01*
X157757857Y-133548572D01*
X157853095Y-133548572D01*
X157995952Y-133500953D01*
X158567381Y-132929524D01*
X158567381Y-133548572D01*
X157662619Y-133929524D02*
X157615000Y-133977143D01*
X157567381Y-134072381D01*
X157567381Y-134310477D01*
X157615000Y-134405715D01*
X157662619Y-134453334D01*
X157757857Y-134500953D01*
X157853095Y-134500953D01*
X157995952Y-134453334D01*
X158567381Y-133881905D01*
X158567381Y-134500953D01*
X157900714Y-134929524D02*
X158900714Y-134929524D01*
X157948333Y-134929524D02*
X157900714Y-135024762D01*
X157900714Y-135215239D01*
X157948333Y-135310477D01*
X157995952Y-135358096D01*
X158091190Y-135405715D01*
X158376905Y-135405715D01*
X158472143Y-135358096D01*
X158519762Y-135310477D01*
X158567381Y-135215239D01*
X158567381Y-135024762D01*
X158519762Y-134929524D01*
X158043571Y-136167620D02*
X158043571Y-135834286D01*
X158567381Y-135834286D02*
X157567381Y-135834286D01*
X157567381Y-136310477D01*
X149677381Y-104036905D02*
X148677381Y-104036905D01*
X148677381Y-104275000D01*
X148725000Y-104417858D01*
X148820238Y-104513096D01*
X148915476Y-104560715D01*
X149105952Y-104608334D01*
X149248810Y-104608334D01*
X149439286Y-104560715D01*
X149534524Y-104513096D01*
X149629762Y-104417858D01*
X149677381Y-104275000D01*
X149677381Y-104036905D01*
X149677381Y-105560715D02*
X149677381Y-104989286D01*
X149677381Y-105275000D02*
X148677381Y-105275000D01*
X148820238Y-105179762D01*
X148915476Y-105084524D01*
X148963095Y-104989286D01*
X152217381Y-105219524D02*
X152217381Y-104648095D01*
X152217381Y-104933809D02*
X151217381Y-104933809D01*
X151360238Y-104838571D01*
X151455476Y-104743333D01*
X151503095Y-104648095D01*
X151217381Y-106076667D02*
X151217381Y-105886190D01*
X151265000Y-105790952D01*
X151312619Y-105743333D01*
X151455476Y-105648095D01*
X151645952Y-105600476D01*
X152026905Y-105600476D01*
X152122143Y-105648095D01*
X152169762Y-105695714D01*
X152217381Y-105790952D01*
X152217381Y-105981429D01*
X152169762Y-106076667D01*
X152122143Y-106124286D01*
X152026905Y-106171905D01*
X151788810Y-106171905D01*
X151693571Y-106124286D01*
X151645952Y-106076667D01*
X151598333Y-105981429D01*
X151598333Y-105790952D01*
X151645952Y-105695714D01*
X151693571Y-105648095D01*
X151788810Y-105600476D01*
X174442381Y-105219524D02*
X174442381Y-105410000D01*
X174394762Y-105505239D01*
X174347143Y-105552858D01*
X174204286Y-105648096D01*
X174013810Y-105695715D01*
X173632857Y-105695715D01*
X173537619Y-105648096D01*
X173490000Y-105600477D01*
X173442381Y-105505239D01*
X173442381Y-105314762D01*
X173490000Y-105219524D01*
X173537619Y-105171905D01*
X173632857Y-105124286D01*
X173870952Y-105124286D01*
X173966190Y-105171905D01*
X174013810Y-105219524D01*
X174061429Y-105314762D01*
X174061429Y-105505239D01*
X174013810Y-105600477D01*
X173966190Y-105648096D01*
X173870952Y-105695715D01*
X173450238Y-129420952D02*
X173545476Y-129373333D01*
X173593095Y-129325714D01*
X173640714Y-129230476D01*
X173640714Y-129182857D01*
X173593095Y-129087619D01*
X173545476Y-129040000D01*
X173450238Y-128992381D01*
X173259761Y-128992381D01*
X173164523Y-129040000D01*
X173116904Y-129087619D01*
X173069285Y-129182857D01*
X173069285Y-129230476D01*
X173116904Y-129325714D01*
X173164523Y-129373333D01*
X173259761Y-129420952D01*
X173450238Y-129420952D01*
X173545476Y-129468571D01*
X173593095Y-129516190D01*
X173640714Y-129611429D01*
X173640714Y-129801905D01*
X173593095Y-129897143D01*
X173545476Y-129944762D01*
X173450238Y-129992381D01*
X173259761Y-129992381D01*
X173164523Y-129944762D01*
X173116904Y-129897143D01*
X173069285Y-129801905D01*
X173069285Y-129611429D01*
X173116904Y-129516190D01*
X173164523Y-129468571D01*
X173259761Y-129420952D01*
X151479285Y-129992381D02*
X152050714Y-129992381D01*
X151765000Y-129992381D02*
X151765000Y-128992381D01*
X151860238Y-129135238D01*
X151955476Y-129230476D01*
X152050714Y-129278095D01*
X146502381Y-117133810D02*
X145502381Y-117133810D01*
X146407143Y-118181429D02*
X146454762Y-118133810D01*
X146502381Y-117990953D01*
X146502381Y-117895715D01*
X146454762Y-117752857D01*
X146359524Y-117657619D01*
X146264286Y-117610000D01*
X146073810Y-117562381D01*
X145930952Y-117562381D01*
X145740476Y-117610000D01*
X145645238Y-117657619D01*
X145550000Y-117752857D01*
X145502381Y-117895715D01*
X145502381Y-117990953D01*
X145550000Y-118133810D01*
X145597619Y-118181429D01*
X146502381Y-119133810D02*
X146502381Y-118562381D01*
X146502381Y-118848095D02*
X145502381Y-118848095D01*
X145645238Y-118752857D01*
X145740476Y-118657619D01*
X145788095Y-118562381D01*
X178474048Y-117641667D02*
X177997857Y-117641667D01*
X178569286Y-117927381D02*
X178235953Y-116927381D01*
X177902619Y-117927381D01*
X177712143Y-116927381D02*
X177140714Y-116927381D01*
X177426429Y-117927381D02*
X177426429Y-116927381D01*
X176807381Y-117927381D02*
X176807381Y-116927381D01*
X176474047Y-117641667D01*
X176140714Y-116927381D01*
X176140714Y-117927381D01*
X175664524Y-117403571D02*
X175331190Y-117403571D01*
X175188333Y-117927381D02*
X175664524Y-117927381D01*
X175664524Y-116927381D01*
X175188333Y-116927381D01*
X174235952Y-116975000D02*
X174331190Y-116927381D01*
X174474047Y-116927381D01*
X174616905Y-116975000D01*
X174712143Y-117070238D01*
X174759762Y-117165476D01*
X174807381Y-117355952D01*
X174807381Y-117498810D01*
X174759762Y-117689286D01*
X174712143Y-117784524D01*
X174616905Y-117879762D01*
X174474047Y-117927381D01*
X174378809Y-117927381D01*
X174235952Y-117879762D01*
X174188333Y-117832143D01*
X174188333Y-117498810D01*
X174378809Y-117498810D01*
X173807381Y-117641667D02*
X173331190Y-117641667D01*
X173902619Y-117927381D02*
X173569286Y-116927381D01*
X173235952Y-117927381D01*
X172997857Y-116927381D02*
X172378809Y-116927381D01*
X172712143Y-117308333D01*
X172569285Y-117308333D01*
X172474047Y-117355952D01*
X172426428Y-117403571D01*
X172378809Y-117498810D01*
X172378809Y-117736905D01*
X172426428Y-117832143D01*
X172474047Y-117879762D01*
X172569285Y-117927381D01*
X172855000Y-117927381D01*
X172950238Y-117879762D01*
X172997857Y-117832143D01*
X171997857Y-117022619D02*
X171950238Y-116975000D01*
X171855000Y-116927381D01*
X171616904Y-116927381D01*
X171521666Y-116975000D01*
X171474047Y-117022619D01*
X171426428Y-117117857D01*
X171426428Y-117213095D01*
X171474047Y-117355952D01*
X172045476Y-117927381D01*
X171426428Y-117927381D01*
X170855000Y-117355952D02*
X170950238Y-117308333D01*
X170997857Y-117260714D01*
X171045476Y-117165476D01*
X171045476Y-117117857D01*
X170997857Y-117022619D01*
X170950238Y-116975000D01*
X170855000Y-116927381D01*
X170664523Y-116927381D01*
X170569285Y-116975000D01*
X170521666Y-117022619D01*
X170474047Y-117117857D01*
X170474047Y-117165476D01*
X170521666Y-117260714D01*
X170569285Y-117308333D01*
X170664523Y-117355952D01*
X170855000Y-117355952D01*
X170950238Y-117403571D01*
X170997857Y-117451190D01*
X171045476Y-117546429D01*
X171045476Y-117736905D01*
X170997857Y-117832143D01*
X170950238Y-117879762D01*
X170855000Y-117927381D01*
X170664523Y-117927381D01*
X170569285Y-117879762D01*
X170521666Y-117832143D01*
X170474047Y-117736905D01*
X170474047Y-117546429D01*
X170521666Y-117451190D01*
X170569285Y-117403571D01*
X170664523Y-117355952D01*
X170045476Y-117546429D02*
X169283571Y-117546429D01*
X168807381Y-117927381D02*
X168807381Y-116927381D01*
X168426428Y-116927381D01*
X168331190Y-116975000D01*
X168283571Y-117022619D01*
X168235952Y-117117857D01*
X168235952Y-117260714D01*
X168283571Y-117355952D01*
X168331190Y-117403571D01*
X168426428Y-117451190D01*
X168807381Y-117451190D01*
X150661666Y-138882381D02*
X150995000Y-138406190D01*
X151233095Y-138882381D02*
X151233095Y-137882381D01*
X150852142Y-137882381D01*
X150756904Y-137930000D01*
X150709285Y-137977619D01*
X150661666Y-138072857D01*
X150661666Y-138215714D01*
X150709285Y-138310952D01*
X150756904Y-138358571D01*
X150852142Y-138406190D01*
X151233095Y-138406190D01*
X149709285Y-138882381D02*
X150280714Y-138882381D01*
X149995000Y-138882381D02*
X149995000Y-137882381D01*
X150090238Y-138025238D01*
X150185476Y-138120476D01*
X150280714Y-138168095D01*
X151090238Y-136342381D02*
X151661667Y-136342381D01*
X151375953Y-136342381D02*
X151375953Y-135342381D01*
X151471191Y-135485238D01*
X151566429Y-135580476D01*
X151661667Y-135628095D01*
X150471191Y-135342381D02*
X150375952Y-135342381D01*
X150280714Y-135390000D01*
X150233095Y-135437619D01*
X150185476Y-135532857D01*
X150137857Y-135723333D01*
X150137857Y-135961429D01*
X150185476Y-136151905D01*
X150233095Y-136247143D01*
X150280714Y-136294762D01*
X150375952Y-136342381D01*
X150471191Y-136342381D01*
X150566429Y-136294762D01*
X150614048Y-136247143D01*
X150661667Y-136151905D01*
X150709286Y-135961429D01*
X150709286Y-135723333D01*
X150661667Y-135532857D01*
X150614048Y-135437619D01*
X150566429Y-135390000D01*
X150471191Y-135342381D01*
X149709286Y-136342381D02*
X149709286Y-135342381D01*
X149614048Y-135961429D02*
X149328333Y-136342381D01*
X149328333Y-135675714D02*
X149709286Y-136056667D01*
X168116191Y-135866190D02*
X168116191Y-136342381D01*
X168449524Y-135342381D02*
X168116191Y-135866190D01*
X167782857Y-135342381D01*
X166925714Y-136342381D02*
X167497143Y-136342381D01*
X167211429Y-136342381D02*
X167211429Y-135342381D01*
X167306667Y-135485238D01*
X167401905Y-135580476D01*
X167497143Y-135628095D01*
X172505476Y-132532381D02*
X173076905Y-132532381D01*
X172791191Y-132532381D02*
X172791191Y-131532381D01*
X172886429Y-131675238D01*
X172981667Y-131770476D01*
X173076905Y-131818095D01*
X171648333Y-131532381D02*
X171838810Y-131532381D01*
X171934048Y-131580000D01*
X171981667Y-131627619D01*
X172076905Y-131770476D01*
X172124524Y-131960952D01*
X172124524Y-132341905D01*
X172076905Y-132437143D01*
X172029286Y-132484762D01*
X171934048Y-132532381D01*
X171743571Y-132532381D01*
X171648333Y-132484762D01*
X171600714Y-132437143D01*
X171553095Y-132341905D01*
X171553095Y-132103810D01*
X171600714Y-132008571D01*
X171648333Y-131960952D01*
X171743571Y-131913333D01*
X171934048Y-131913333D01*
X172029286Y-131960952D01*
X172076905Y-132008571D01*
X172124524Y-132103810D01*
X171124524Y-132532381D02*
X171124524Y-131532381D01*
X170791190Y-132246667D01*
X170457857Y-131532381D01*
X170457857Y-132532381D01*
X169981667Y-132532381D02*
X169981667Y-131532381D01*
X169981667Y-132008571D02*
X169410238Y-132008571D01*
X169410238Y-132532381D02*
X169410238Y-131532381D01*
X169029286Y-131865714D02*
X168505476Y-131865714D01*
X169029286Y-132532381D01*
X168505476Y-132532381D01*
M02*
