G04 #@! TF.FileFunction,Soldermask,Bot*
%FSLAX46Y46*%
G04 Gerber Fmt 4.6, Leading zero omitted, Abs format (unit mm)*
G04 Created by KiCad (PCBNEW 4.0.2-stable) date 2016-08-08 23:02:02*
%MOMM*%
G01*
G04 APERTURE LIST*
%ADD10C,0.100000*%
%ADD11C,1.924000*%
%ADD12O,2.000000X2.700000*%
%ADD13R,2.432000X2.432000*%
%ADD14O,2.432000X2.432000*%
%ADD15C,2.398980*%
%ADD16R,2.432000X2.127200*%
%ADD17O,2.432000X2.127200*%
%ADD18C,1.797000*%
%ADD19C,0.254000*%
G04 APERTURE END LIST*
D10*
D11*
X154305000Y-137730000D03*
X156845000Y-137730000D03*
X159385000Y-137730000D03*
X161925000Y-137730000D03*
X164465000Y-137730000D03*
X167005000Y-137730000D03*
X169545000Y-137730000D03*
X172085000Y-137730000D03*
X172085000Y-113730000D03*
X169545000Y-113730000D03*
X167005000Y-113730000D03*
X164465000Y-113730000D03*
X161925000Y-113730000D03*
X159385000Y-113730000D03*
X156845000Y-113730000D03*
X154305000Y-113730000D03*
D12*
X146685000Y-130175000D03*
X149225000Y-130175000D03*
X151765000Y-130175000D03*
X154305000Y-130175000D03*
X156845000Y-130175000D03*
X159385000Y-130175000D03*
X161925000Y-130175000D03*
X164465000Y-130175000D03*
X167005000Y-130175000D03*
X169545000Y-130175000D03*
X172085000Y-130175000D03*
X174625000Y-130175000D03*
X177165000Y-130175000D03*
X179705000Y-130175000D03*
X179705000Y-122555000D03*
X177165000Y-122555000D03*
X174625000Y-122555000D03*
X172085000Y-122555000D03*
X169545000Y-122555000D03*
X167005000Y-122555000D03*
X164465000Y-122555000D03*
X161925000Y-122555000D03*
X159385000Y-122555000D03*
X156845000Y-122555000D03*
X154305000Y-122555000D03*
X151765000Y-122555000D03*
X149225000Y-122555000D03*
X146685000Y-122555000D03*
D13*
X180975000Y-116205000D03*
D14*
X180975000Y-118745000D03*
D15*
X164465000Y-135255000D03*
X177165000Y-135255000D03*
D13*
X180975000Y-135255000D03*
D14*
X180975000Y-137795000D03*
D16*
X146050000Y-134620000D03*
D17*
X146050000Y-137160000D03*
X146050000Y-139700000D03*
D18*
X173990000Y-108585000D03*
X173990000Y-103505000D03*
X181610000Y-108585000D03*
X181610000Y-103505000D03*
X164465000Y-108585000D03*
X164465000Y-103505000D03*
X172085000Y-108585000D03*
X172085000Y-103505000D03*
X154940000Y-108585000D03*
X154940000Y-103505000D03*
X162560000Y-108585000D03*
X162560000Y-103505000D03*
X145415000Y-108585000D03*
X145415000Y-103505000D03*
X153035000Y-108585000D03*
X153035000Y-103505000D03*
D19*
G36*
X182753000Y-141478000D02*
X144272000Y-141478000D01*
X144272000Y-97917000D01*
X182753000Y-97917000D01*
X182753000Y-141478000D01*
X182753000Y-141478000D01*
G37*
X182753000Y-141478000D02*
X144272000Y-141478000D01*
X144272000Y-97917000D01*
X182753000Y-97917000D01*
X182753000Y-141478000D01*
M02*
