G04 #@! TF.FileFunction,Legend,Bot*
%FSLAX46Y46*%
G04 Gerber Fmt 4.6, Leading zero omitted, Abs format (unit mm)*
G04 Created by KiCad (PCBNEW 4.0.2-stable) date 2016-08-08 23:02:02*
%MOMM*%
G01*
G04 APERTURE LIST*
%ADD10C,0.100000*%
%ADD11C,0.300000*%
%ADD12C,0.150000*%
G04 APERTURE END LIST*
D10*
D11*
X148982857Y-135933571D02*
X148982857Y-134433571D01*
X148411429Y-134433571D01*
X148268571Y-134505000D01*
X148197143Y-134576429D01*
X148125714Y-134719286D01*
X148125714Y-134933571D01*
X148197143Y-135076429D01*
X148268571Y-135147857D01*
X148411429Y-135219286D01*
X148982857Y-135219286D01*
X182352143Y-120713572D02*
X182352143Y-121856429D01*
X181546428Y-113137143D02*
X180403571Y-113137143D01*
X180975000Y-113708571D02*
X180975000Y-112565714D01*
D12*
X147423095Y-111577381D02*
X147423095Y-110577381D01*
X147185000Y-110577381D01*
X147042142Y-110625000D01*
X146946904Y-110720238D01*
X146899285Y-110815476D01*
X146851666Y-111005952D01*
X146851666Y-111148810D01*
X146899285Y-111339286D01*
X146946904Y-111434524D01*
X147042142Y-111529762D01*
X147185000Y-111577381D01*
X147423095Y-111577381D01*
X145899285Y-111577381D02*
X146470714Y-111577381D01*
X146185000Y-111577381D02*
X146185000Y-110577381D01*
X146280238Y-110720238D01*
X146375476Y-110815476D01*
X146470714Y-110863095D01*
X174180476Y-114117381D02*
X173990000Y-114117381D01*
X173894761Y-114069762D01*
X173847142Y-114022143D01*
X173751904Y-113879286D01*
X173704285Y-113688810D01*
X173704285Y-113307857D01*
X173751904Y-113212619D01*
X173799523Y-113165000D01*
X173894761Y-113117381D01*
X174085238Y-113117381D01*
X174180476Y-113165000D01*
X174228095Y-113212619D01*
X174275714Y-113307857D01*
X174275714Y-113545952D01*
X174228095Y-113641190D01*
X174180476Y-113688810D01*
X174085238Y-113736429D01*
X173894761Y-113736429D01*
X173799523Y-113688810D01*
X173751904Y-113641190D01*
X173704285Y-113545952D01*
X174085238Y-137675952D02*
X174180476Y-137628333D01*
X174228095Y-137580714D01*
X174275714Y-137485476D01*
X174275714Y-137437857D01*
X174228095Y-137342619D01*
X174180476Y-137295000D01*
X174085238Y-137247381D01*
X173894761Y-137247381D01*
X173799523Y-137295000D01*
X173751904Y-137342619D01*
X173704285Y-137437857D01*
X173704285Y-137485476D01*
X173751904Y-137580714D01*
X173799523Y-137628333D01*
X173894761Y-137675952D01*
X174085238Y-137675952D01*
X174180476Y-137723571D01*
X174228095Y-137771190D01*
X174275714Y-137866429D01*
X174275714Y-138056905D01*
X174228095Y-138152143D01*
X174180476Y-138199762D01*
X174085238Y-138247381D01*
X173894761Y-138247381D01*
X173799523Y-138199762D01*
X173751904Y-138152143D01*
X173704285Y-138056905D01*
X173704285Y-137866429D01*
X173751904Y-137771190D01*
X173799523Y-137723571D01*
X173894761Y-137675952D01*
X152114285Y-138882381D02*
X152685714Y-138882381D01*
X152400000Y-138882381D02*
X152400000Y-137882381D01*
X152495238Y-138025238D01*
X152590476Y-138120476D01*
X152685714Y-138168095D01*
X151471190Y-125547381D02*
X151471190Y-124547381D01*
X150423571Y-125452143D02*
X150471190Y-125499762D01*
X150614047Y-125547381D01*
X150709285Y-125547381D01*
X150852143Y-125499762D01*
X150947381Y-125404524D01*
X150995000Y-125309286D01*
X151042619Y-125118810D01*
X151042619Y-124975952D01*
X150995000Y-124785476D01*
X150947381Y-124690238D01*
X150852143Y-124595000D01*
X150709285Y-124547381D01*
X150614047Y-124547381D01*
X150471190Y-124595000D01*
X150423571Y-124642619D01*
X149471190Y-125547381D02*
X150042619Y-125547381D01*
X149756905Y-125547381D02*
X149756905Y-124547381D01*
X149852143Y-124690238D01*
X149947381Y-124785476D01*
X150042619Y-124833095D01*
X179109048Y-125896667D02*
X178632857Y-125896667D01*
X179204286Y-126182381D02*
X178870953Y-125182381D01*
X178537619Y-126182381D01*
X178347143Y-125182381D02*
X177775714Y-125182381D01*
X178061429Y-126182381D02*
X178061429Y-125182381D01*
X177442381Y-126182381D02*
X177442381Y-125182381D01*
X177109047Y-125896667D01*
X176775714Y-125182381D01*
X176775714Y-126182381D01*
X176299524Y-125658571D02*
X175966190Y-125658571D01*
X175823333Y-126182381D02*
X176299524Y-126182381D01*
X176299524Y-125182381D01*
X175823333Y-125182381D01*
X174870952Y-125230000D02*
X174966190Y-125182381D01*
X175109047Y-125182381D01*
X175251905Y-125230000D01*
X175347143Y-125325238D01*
X175394762Y-125420476D01*
X175442381Y-125610952D01*
X175442381Y-125753810D01*
X175394762Y-125944286D01*
X175347143Y-126039524D01*
X175251905Y-126134762D01*
X175109047Y-126182381D01*
X175013809Y-126182381D01*
X174870952Y-126134762D01*
X174823333Y-126087143D01*
X174823333Y-125753810D01*
X175013809Y-125753810D01*
X174442381Y-125896667D02*
X173966190Y-125896667D01*
X174537619Y-126182381D02*
X174204286Y-125182381D01*
X173870952Y-126182381D01*
X173632857Y-125182381D02*
X173013809Y-125182381D01*
X173347143Y-125563333D01*
X173204285Y-125563333D01*
X173109047Y-125610952D01*
X173061428Y-125658571D01*
X173013809Y-125753810D01*
X173013809Y-125991905D01*
X173061428Y-126087143D01*
X173109047Y-126134762D01*
X173204285Y-126182381D01*
X173490000Y-126182381D01*
X173585238Y-126134762D01*
X173632857Y-126087143D01*
X172632857Y-125277619D02*
X172585238Y-125230000D01*
X172490000Y-125182381D01*
X172251904Y-125182381D01*
X172156666Y-125230000D01*
X172109047Y-125277619D01*
X172061428Y-125372857D01*
X172061428Y-125468095D01*
X172109047Y-125610952D01*
X172680476Y-126182381D01*
X172061428Y-126182381D01*
X171490000Y-125610952D02*
X171585238Y-125563333D01*
X171632857Y-125515714D01*
X171680476Y-125420476D01*
X171680476Y-125372857D01*
X171632857Y-125277619D01*
X171585238Y-125230000D01*
X171490000Y-125182381D01*
X171299523Y-125182381D01*
X171204285Y-125230000D01*
X171156666Y-125277619D01*
X171109047Y-125372857D01*
X171109047Y-125420476D01*
X171156666Y-125515714D01*
X171204285Y-125563333D01*
X171299523Y-125610952D01*
X171490000Y-125610952D01*
X171585238Y-125658571D01*
X171632857Y-125706190D01*
X171680476Y-125801429D01*
X171680476Y-125991905D01*
X171632857Y-126087143D01*
X171585238Y-126134762D01*
X171490000Y-126182381D01*
X171299523Y-126182381D01*
X171204285Y-126134762D01*
X171156666Y-126087143D01*
X171109047Y-125991905D01*
X171109047Y-125801429D01*
X171156666Y-125706190D01*
X171204285Y-125658571D01*
X171299523Y-125610952D01*
X170680476Y-125801429D02*
X169918571Y-125801429D01*
X169442381Y-126182381D02*
X169442381Y-125182381D01*
X169061428Y-125182381D01*
X168966190Y-125230000D01*
X168918571Y-125277619D01*
X168870952Y-125372857D01*
X168870952Y-125515714D01*
X168918571Y-125610952D01*
X168966190Y-125658571D01*
X169061428Y-125706190D01*
X169442381Y-125706190D01*
X162091666Y-135072381D02*
X162425000Y-134596190D01*
X162663095Y-135072381D02*
X162663095Y-134072381D01*
X162282142Y-134072381D01*
X162186904Y-134120000D01*
X162139285Y-134167619D01*
X162091666Y-134262857D01*
X162091666Y-134405714D01*
X162139285Y-134500952D01*
X162186904Y-134548571D01*
X162282142Y-134596190D01*
X162663095Y-134596190D01*
X161139285Y-135072381D02*
X161710714Y-135072381D01*
X161425000Y-135072381D02*
X161425000Y-134072381D01*
X161520238Y-134215238D01*
X161615476Y-134310476D01*
X161710714Y-134358095D01*
X166965238Y-133802381D02*
X167536667Y-133802381D01*
X167250953Y-133802381D02*
X167250953Y-132802381D01*
X167346191Y-132945238D01*
X167441429Y-133040476D01*
X167536667Y-133088095D01*
X166346191Y-132802381D02*
X166250952Y-132802381D01*
X166155714Y-132850000D01*
X166108095Y-132897619D01*
X166060476Y-132992857D01*
X166012857Y-133183333D01*
X166012857Y-133421429D01*
X166060476Y-133611905D01*
X166108095Y-133707143D01*
X166155714Y-133754762D01*
X166250952Y-133802381D01*
X166346191Y-133802381D01*
X166441429Y-133754762D01*
X166489048Y-133707143D01*
X166536667Y-133611905D01*
X166584286Y-133421429D01*
X166584286Y-133183333D01*
X166536667Y-132992857D01*
X166489048Y-132897619D01*
X166441429Y-132850000D01*
X166346191Y-132802381D01*
X165584286Y-133802381D02*
X165584286Y-132802381D01*
X165489048Y-133421429D02*
X165203333Y-133802381D01*
X165203333Y-133135714D02*
X165584286Y-133516667D01*
X181808333Y-139787381D02*
X181808333Y-140501667D01*
X181855953Y-140644524D01*
X181951191Y-140739762D01*
X182094048Y-140787381D01*
X182189286Y-140787381D01*
X181332143Y-140787381D02*
X181332143Y-139787381D01*
X180951190Y-139787381D01*
X180855952Y-139835000D01*
X180808333Y-139882619D01*
X180760714Y-139977857D01*
X180760714Y-140120714D01*
X180808333Y-140215952D01*
X180855952Y-140263571D01*
X180951190Y-140311190D01*
X181332143Y-140311190D01*
X179808333Y-140787381D02*
X180379762Y-140787381D01*
X180094048Y-140787381D02*
X180094048Y-139787381D01*
X180189286Y-139930238D01*
X180284524Y-140025476D01*
X180379762Y-140073095D01*
M02*
