G04 #@! TF.FileFunction,Copper,L2,Bot,Signal*
%FSLAX46Y46*%
G04 Gerber Fmt 4.6, Leading zero omitted, Abs format (unit mm)*
G04 Created by KiCad (PCBNEW 4.0.2+e4-6225~38~ubuntu14.04.1-stable) date Qua 03 Ago 2016 18:24:10 BRT*
%MOMM*%
G01*
G04 APERTURE LIST*
%ADD10C,0.100000*%
%ADD11C,0.300000*%
%ADD12R,1.300000X1.300000*%
%ADD13C,1.300000*%
%ADD14C,1.524000*%
%ADD15O,1.600000X2.300000*%
%ADD16R,2.032000X2.032000*%
%ADD17O,2.032000X2.032000*%
%ADD18C,1.998980*%
%ADD19O,1.998980X2.499360*%
%ADD20C,1.200000*%
%ADD21C,0.350000*%
%ADD22C,0.500000*%
%ADD23C,0.254000*%
G04 APERTURE END LIST*
D10*
D11*
X157304999Y-116802857D02*
X157090713Y-116874286D01*
X157019285Y-116945714D01*
X156947856Y-117088571D01*
X156947856Y-117302857D01*
X157019285Y-117445714D01*
X157090713Y-117517143D01*
X157233571Y-117588571D01*
X157804999Y-117588571D01*
X157804999Y-116088571D01*
X157304999Y-116088571D01*
X157162142Y-116160000D01*
X157090713Y-116231429D01*
X157019285Y-116374286D01*
X157019285Y-116517143D01*
X157090713Y-116660000D01*
X157162142Y-116731429D01*
X157304999Y-116802857D01*
X157804999Y-116802857D01*
X156304999Y-117588571D02*
X156304999Y-116588571D01*
X156304999Y-116874286D02*
X156233571Y-116731429D01*
X156162142Y-116660000D01*
X156019285Y-116588571D01*
X155876428Y-116588571D01*
X155162142Y-117588571D02*
X155305000Y-117517143D01*
X155376428Y-117445714D01*
X155447857Y-117302857D01*
X155447857Y-116874286D01*
X155376428Y-116731429D01*
X155305000Y-116660000D01*
X155162142Y-116588571D01*
X154947857Y-116588571D01*
X154805000Y-116660000D01*
X154733571Y-116731429D01*
X154662142Y-116874286D01*
X154662142Y-117302857D01*
X154733571Y-117445714D01*
X154805000Y-117517143D01*
X154947857Y-117588571D01*
X155162142Y-117588571D01*
X153376428Y-117517143D02*
X153519285Y-117588571D01*
X153804999Y-117588571D01*
X153947857Y-117517143D01*
X154019285Y-117445714D01*
X154090714Y-117302857D01*
X154090714Y-116874286D01*
X154019285Y-116731429D01*
X153947857Y-116660000D01*
X153804999Y-116588571D01*
X153519285Y-116588571D01*
X153376428Y-116660000D01*
X152733571Y-117588571D02*
X152733571Y-116088571D01*
X152090714Y-117588571D02*
X152090714Y-116802857D01*
X152162143Y-116660000D01*
X152305000Y-116588571D01*
X152519285Y-116588571D01*
X152662143Y-116660000D01*
X152733571Y-116731429D01*
X150805000Y-117517143D02*
X150947857Y-117588571D01*
X151233571Y-117588571D01*
X151376428Y-117517143D01*
X151447857Y-117374286D01*
X151447857Y-116802857D01*
X151376428Y-116660000D01*
X151233571Y-116588571D01*
X150947857Y-116588571D01*
X150805000Y-116660000D01*
X150733571Y-116802857D01*
X150733571Y-116945714D01*
X151447857Y-117088571D01*
X159626428Y-119988571D02*
X159626428Y-118488571D01*
X159626428Y-119202857D02*
X158769285Y-119202857D01*
X158769285Y-119988571D02*
X158769285Y-118488571D01*
X157412142Y-119988571D02*
X157412142Y-119202857D01*
X157483571Y-119060000D01*
X157626428Y-118988571D01*
X157912142Y-118988571D01*
X158054999Y-119060000D01*
X157412142Y-119917143D02*
X157554999Y-119988571D01*
X157912142Y-119988571D01*
X158054999Y-119917143D01*
X158126428Y-119774286D01*
X158126428Y-119631429D01*
X158054999Y-119488571D01*
X157912142Y-119417143D01*
X157554999Y-119417143D01*
X157412142Y-119345714D01*
X156054999Y-119917143D02*
X156197856Y-119988571D01*
X156483570Y-119988571D01*
X156626428Y-119917143D01*
X156697856Y-119845714D01*
X156769285Y-119702857D01*
X156769285Y-119274286D01*
X156697856Y-119131429D01*
X156626428Y-119060000D01*
X156483570Y-118988571D01*
X156197856Y-118988571D01*
X156054999Y-119060000D01*
X155412142Y-119988571D02*
X155412142Y-118488571D01*
X155269285Y-119417143D02*
X154840714Y-119988571D01*
X154840714Y-118988571D02*
X155412142Y-119560000D01*
X153626428Y-119917143D02*
X153769285Y-119988571D01*
X154054999Y-119988571D01*
X154197856Y-119917143D01*
X154269285Y-119774286D01*
X154269285Y-119202857D01*
X154197856Y-119060000D01*
X154054999Y-118988571D01*
X153769285Y-118988571D01*
X153626428Y-119060000D01*
X153554999Y-119202857D01*
X153554999Y-119345714D01*
X154269285Y-119488571D01*
X152912142Y-119988571D02*
X152912142Y-118988571D01*
X152912142Y-119274286D02*
X152840714Y-119131429D01*
X152769285Y-119060000D01*
X152626428Y-118988571D01*
X152483571Y-118988571D01*
X150983571Y-118988571D02*
X150626428Y-119988571D01*
X150269286Y-118988571D01*
X149769286Y-118631429D02*
X149697857Y-118560000D01*
X149555000Y-118488571D01*
X149197857Y-118488571D01*
X149055000Y-118560000D01*
X148983571Y-118631429D01*
X148912143Y-118774286D01*
X148912143Y-118917143D01*
X148983571Y-119131429D01*
X149840714Y-119988571D01*
X148912143Y-119988571D01*
D12*
X175260000Y-134620000D03*
D13*
X175260000Y-137120000D03*
D12*
X179070000Y-125730000D03*
D13*
X181570000Y-125730000D03*
D12*
X160020000Y-134620000D03*
D13*
X160020000Y-137120000D03*
D14*
X153670000Y-129475000D03*
X156210000Y-129475000D03*
X158750000Y-129475000D03*
X161290000Y-129475000D03*
X163830000Y-129475000D03*
X166370000Y-129475000D03*
X168910000Y-129475000D03*
X171450000Y-129475000D03*
X171450000Y-105475000D03*
X168910000Y-105475000D03*
X166370000Y-105475000D03*
X163830000Y-105475000D03*
X161290000Y-105475000D03*
X158750000Y-105475000D03*
X156210000Y-105475000D03*
X153670000Y-105475000D03*
D15*
X146050000Y-121920000D03*
X148590000Y-121920000D03*
X151130000Y-121920000D03*
X153670000Y-121920000D03*
X156210000Y-121920000D03*
X158750000Y-121920000D03*
X161290000Y-121920000D03*
X163830000Y-121920000D03*
X166370000Y-121920000D03*
X168910000Y-121920000D03*
X171450000Y-121920000D03*
X173990000Y-121920000D03*
X176530000Y-121920000D03*
X179070000Y-121920000D03*
X179070000Y-114300000D03*
X176530000Y-114300000D03*
X173990000Y-114300000D03*
X171450000Y-114300000D03*
X168910000Y-114300000D03*
X166370000Y-114300000D03*
X163830000Y-114300000D03*
X161290000Y-114300000D03*
X158750000Y-114300000D03*
X156210000Y-114300000D03*
X153670000Y-114300000D03*
X151130000Y-114300000D03*
X148590000Y-114300000D03*
X146050000Y-114300000D03*
D16*
X180340000Y-107950000D03*
D17*
X180340000Y-110490000D03*
D18*
X154305000Y-135890000D03*
X146685000Y-135890000D03*
D19*
X170080940Y-135890000D03*
X165199060Y-135890000D03*
D20*
X162560000Y-111760000D03*
X162560000Y-124460000D03*
X177800000Y-107950000D03*
X177800000Y-125730000D03*
X167640000Y-107950000D03*
X176530000Y-107950000D03*
X167640000Y-123825000D03*
X167640000Y-133350000D03*
X165100000Y-133350000D03*
X165100000Y-124460000D03*
D21*
X146050000Y-121920000D02*
X146050000Y-135255000D01*
X146050000Y-135255000D02*
X146685000Y-135890000D01*
D22*
X163830000Y-121920000D02*
X163830000Y-123190000D01*
X161290000Y-113030000D02*
X161290000Y-114300000D01*
X162560000Y-111760000D02*
X161290000Y-113030000D01*
X163830000Y-123190000D02*
X162560000Y-124460000D01*
X180340000Y-119380000D02*
X180975000Y-118745000D01*
X180975000Y-118745000D02*
X180975000Y-111125000D01*
X180975000Y-111125000D02*
X180340000Y-110490000D01*
X163830000Y-121920000D02*
X163830000Y-120650000D01*
X181570000Y-120610000D02*
X181570000Y-125730000D01*
X180340000Y-119380000D02*
X181570000Y-120610000D01*
X165100000Y-119380000D02*
X180340000Y-119380000D01*
X163830000Y-120650000D02*
X165100000Y-119380000D01*
X177800000Y-125730000D02*
X177800000Y-135890000D01*
X179070000Y-125730000D02*
X177800000Y-125730000D01*
X166370000Y-114300000D02*
X166370000Y-109220000D01*
X166370000Y-109220000D02*
X167640000Y-107950000D01*
X176530000Y-107950000D02*
X177800000Y-107950000D01*
X177800000Y-107950000D02*
X180340000Y-107950000D01*
X175260000Y-137120000D02*
X176570000Y-137120000D01*
X176570000Y-137120000D02*
X177800000Y-135890000D01*
X160020000Y-137120000D02*
X155535000Y-137120000D01*
X155535000Y-137120000D02*
X154305000Y-135890000D01*
X160020000Y-137120000D02*
X160020000Y-137160000D01*
X160020000Y-137160000D02*
X161290000Y-138430000D01*
X161290000Y-138430000D02*
X173950000Y-138430000D01*
X173950000Y-138430000D02*
X175260000Y-137120000D01*
X164465000Y-118110000D02*
X166370000Y-116205000D01*
X161290000Y-121920000D02*
X161290000Y-120015000D01*
X166370000Y-116205000D02*
X166370000Y-114300000D01*
X163195000Y-118110000D02*
X164465000Y-118110000D01*
X161290000Y-120015000D02*
X163195000Y-118110000D01*
D21*
X168910000Y-121920000D02*
X168910000Y-122555000D01*
X168910000Y-122555000D02*
X167640000Y-123825000D01*
X167640000Y-133350000D02*
X170080940Y-135790940D01*
X170080940Y-135790940D02*
X170080940Y-135890000D01*
X175260000Y-134620000D02*
X171350940Y-134620000D01*
X171350940Y-134620000D02*
X170080940Y-135890000D01*
X170080940Y-135790940D02*
X170080940Y-135890000D01*
X166370000Y-121920000D02*
X166370000Y-123190000D01*
X165199060Y-133449060D02*
X165199060Y-135890000D01*
X165100000Y-133350000D02*
X165199060Y-133449060D01*
X166370000Y-123190000D02*
X165100000Y-124460000D01*
X160020000Y-134620000D02*
X163929060Y-134620000D01*
X163929060Y-134620000D02*
X165199060Y-135890000D01*
X148590000Y-121920000D02*
X148590000Y-124395000D01*
X148590000Y-124395000D02*
X153670000Y-129475000D01*
X151130000Y-121920000D02*
X151130000Y-124395000D01*
X151130000Y-124395000D02*
X156210000Y-129475000D01*
X153670000Y-121920000D02*
X153670000Y-124395000D01*
X153670000Y-124395000D02*
X158750000Y-129475000D01*
X156210000Y-121920000D02*
X156210000Y-124395000D01*
X156210000Y-124395000D02*
X161290000Y-129475000D01*
X163830000Y-129475000D02*
X163895000Y-129475000D01*
X163895000Y-129475000D02*
X171450000Y-121920000D01*
X166370000Y-129475000D02*
X166435000Y-129475000D01*
X166435000Y-129475000D02*
X173990000Y-121920000D01*
X168910000Y-129475000D02*
X168975000Y-129475000D01*
X168975000Y-129475000D02*
X176530000Y-121920000D01*
X171450000Y-129475000D02*
X171515000Y-129475000D01*
X171515000Y-129475000D02*
X179070000Y-121920000D01*
X179070000Y-114300000D02*
X179070000Y-113095000D01*
X179070000Y-113095000D02*
X171450000Y-105475000D01*
X176530000Y-114300000D02*
X176530000Y-113095000D01*
X176530000Y-113095000D02*
X168910000Y-105475000D01*
X158750000Y-114300000D02*
X158750000Y-113095000D01*
X158750000Y-113095000D02*
X166370000Y-105475000D01*
X156210000Y-114300000D02*
X156210000Y-113095000D01*
X156210000Y-113095000D02*
X163830000Y-105475000D01*
X153670000Y-114300000D02*
X153670000Y-113095000D01*
X153670000Y-113095000D02*
X161290000Y-105475000D01*
X151130000Y-114300000D02*
X151130000Y-113095000D01*
X151130000Y-113095000D02*
X158750000Y-105475000D01*
X148590000Y-114300000D02*
X148590000Y-113095000D01*
X148590000Y-113095000D02*
X156210000Y-105475000D01*
X146050000Y-114300000D02*
X146050000Y-113095000D01*
X146050000Y-113095000D02*
X153670000Y-105475000D01*
D23*
G36*
X149098000Y-132080000D02*
X149108006Y-132129410D01*
X149136447Y-132171035D01*
X149178841Y-132198315D01*
X149225000Y-132207000D01*
X151638000Y-132207000D01*
X151638000Y-133223000D01*
X148082000Y-133223000D01*
X148082000Y-130937000D01*
X149098000Y-130937000D01*
X149098000Y-132080000D01*
X149098000Y-132080000D01*
G37*
X149098000Y-132080000D02*
X149108006Y-132129410D01*
X149136447Y-132171035D01*
X149178841Y-132198315D01*
X149225000Y-132207000D01*
X151638000Y-132207000D01*
X151638000Y-133223000D01*
X148082000Y-133223000D01*
X148082000Y-130937000D01*
X149098000Y-130937000D01*
X149098000Y-132080000D01*
G36*
X150368000Y-130683000D02*
X149352000Y-130683000D01*
X149352000Y-129667000D01*
X150368000Y-129667000D01*
X150368000Y-130683000D01*
X150368000Y-130683000D01*
G37*
X150368000Y-130683000D02*
X149352000Y-130683000D01*
X149352000Y-129667000D01*
X150368000Y-129667000D01*
X150368000Y-130683000D01*
G36*
X181483000Y-103378000D02*
X145542000Y-103378000D01*
X145542000Y-99187000D01*
X181483000Y-99187000D01*
X181483000Y-103378000D01*
X181483000Y-103378000D01*
G37*
X181483000Y-103378000D02*
X145542000Y-103378000D01*
X145542000Y-99187000D01*
X181483000Y-99187000D01*
X181483000Y-103378000D01*
M02*
